<?xml version="1.0" encoding="UTF-8"?>
<svg viewBox="0 0 1052.7181 743.1156" xmlns="http://www.w3.org/2000/svg" xmlns:xlink="http://www.w3.org/1999/xlink">
 <defs>
  <linearGradient id="h">
   <stop stop-color="#fff" stop-opacity=".12376" offset="0"/>
   <stop stop-color="#00239a" stop-opacity="0" offset="1"/>
  </linearGradient>
  <linearGradient id="j">
   <stop stop-color="#0b0b28" offset="0"/>
   <stop offset="1"/>
  </linearGradient>
  <linearGradient id="f">
   <stop stop-color="#ffef40" stop-opacity=".65882" offset="0"/>
   <stop stop-color="#eeffca" stop-opacity="0" offset="1"/>
  </linearGradient>
  <linearGradient id="i">
   <stop stop-color="#bfdfff" offset="0"/>
   <stop stop-color="#fff" stop-opacity="0" offset="1"/>
  </linearGradient>
  <linearGradient id="q" x1="947.19" x2="943.07" y1="618.07" y2="658.19" gradientUnits="userSpaceOnUse" xlink:href="#j"/>
  <linearGradient id="p" x1="1061.4" x2="1060" y1="596.79" y2="632.8" gradientUnits="userSpaceOnUse" xlink:href="#j"/>
  <radialGradient id="o" cx="190.33" cy="1002.2" r="139.68" gradientUnits="userSpaceOnUse">
   <stop stop-color="#1dbfff" stop-opacity=".51579" offset="0"/>
   <stop stop-color="#0a3eff" stop-opacity="0" offset="1"/>
  </radialGradient>
  <radialGradient id="m" cx="-616.13" cy="-117.8" r="162.22" gradientUnits="userSpaceOnUse">
   <stop stop-color="#b7cde5" offset="0"/>
   <stop stop-color="#3c7bcd" offset="1"/>
  </radialGradient>
  <radialGradient id="e" cx="467.43" cy="138.12" r="7.5374" gradientTransform="matrix(1.1729 -.43233 .34585 .93829 -128.36 210.75)" gradientUnits="userSpaceOnUse">
   <stop stop-color="#4a83ba" stop-opacity=".40099" offset="0"/>
   <stop stop-color="#75a0d9" stop-opacity=".41089" offset="1"/>
  </radialGradient>
  <radialGradient id="k" cx="431.85" cy="707.21" r="579.82" gradientTransform="matrix(.40065 -4.5998e-8 2.6825e-8 .20634 958.64 339.53)" gradientUnits="userSpaceOnUse">
   <stop stop-color="#0035dc" offset="0"/>
   <stop stop-color="#141434" offset="1"/>
  </radialGradient>
  <radialGradient id="d" cx="-117.45" cy="523.15" r="280.99" gradientTransform="matrix(1 0 0 .86775 0 69.184)" gradientUnits="userSpaceOnUse" xlink:href="#i"/>
  <radialGradient id="c" cx="-634.03" cy="541.06" r="78.632" gradientTransform="matrix(.46946 .015626 -.14933 4.4864 -255.58 -1876.4)" gradientUnits="userSpaceOnUse" xlink:href="#f"/>
  <radialGradient id="b" cx="-634.03" cy="541.06" r="78.632" gradientTransform="matrix(.47824 -.012162 .11392 4.4796 -392.45 -1890.4)" gradientUnits="userSpaceOnUse" xlink:href="#f"/>
  <radialGradient id="a" cx="-634.03" cy="541.06" r="78.632" gradientTransform="matrix(.4697 .004493 -.042866 4.4813 -313.03 -1880.8)" gradientUnits="userSpaceOnUse" xlink:href="#f"/>
  <radialGradient id="n" cx="-44.94" cy="552.56" r="26.008" gradientTransform="matrix(1 0 0 .88926 0 61.191)" gradientUnits="userSpaceOnUse" xlink:href="#i"/>
  <radialGradient id="g" cx="350.49" cy="838.65" r="427.28" gradientTransform="matrix(.84638 -.014493 .0014391 .084046 52.637 786.74)" gradientUnits="userSpaceOnUse" xlink:href="#h"/>
  <radialGradient id="l" cx="350.49" cy="838.65" r="427.28" gradientTransform="matrix(1.1014 .0028985 -.0025632 .084038 -33.408 780.65)" gradientUnits="userSpaceOnUse" xlink:href="#h"/>
 </defs>
 <g transform="translate(-838.88 32.513)">
  <use transform="matrix(1.0423 -.28167 .28167 1.0423 -61.104 -346.62)" width="744.09448" height="524.40942"/>
  <g transform="matrix(2.0645 0 0 2.0645 -924.29 -721.18)">
   <path d="m854.05 333.58h509.92v359.71h-509.92z" fill="url(#k)" fill-rule="evenodd"/>
   <path d="m1363.3 572.31c-26.492 2.9548-48.093 6.2982-77.344 20.91-39.061 19.512-72.739 39.898-127.96 26.325s-81.494-33.609-148.84-25.125c-50.586 6.3722-122 13.979-154.45 17.369v81.503h508.6v-120.98z" fill="url(#p)" fill-rule="evenodd" stroke="#000" stroke-width=".48239"/>
   <path d="m909.13 591.98c-27.865 0.23014-47.689 7.3086-54.417 9.3355v91.979h508.6v-36.684l-20.748-1.5071c-26.269-1.9038-109.12-24.754-196.01-13.33s-91.602-0.63015-161.65-32.996c-28.458-13.149-54.463-16.974-75.771-16.798z" fill="url(#q)" fill-rule="evenodd" stroke="#000" stroke-width=".48239"/>
   <path d="m1244.0903,622.26038c.7642-2.30045-1.0591-4.50101-3.1896-2.76882-1.7592.70714-2.2507-1.78834-3.6718-.68196-1.3042-.55805 3.6959-1.41287.408-1.45039-1.246.02824-5.2949.10749-2.3557-.6646 .4628-1.23104-.9994.72855-1.3996-.81249-1.7382-.12706-1.1626-1.21793-1.3707-2.42544 .4015.75918 3.5027,1.65935 2.4005.04272-1.7173.0517-1.1417-1.97528-.1386-1.9281-1.0432.19549-1.4442.18599-.4499-.3793-1.9847-.7484.9742-.63614-.7583-1.59842 .3041-.29962 4.8563,1.15614 3.0904-.23883-1.2111-.49649-4.7818-2.79527-1.7029-2.48603 .7692-1.14075-1.3851-1.24687-.9261-2.40198-.2592-.40089 3.2812,1.9216 1.2499-.41553-1.1867-.53152-.5333-.79045-.2594-1.58409 1.4154-.09488 3.0304-.22651 1.4242-1.35649-.3886-1.44766 3.1781.716 1.8976-.19322-.6117-.3409-.256-1.73128-1.3785-1.8746 .4456.27797 3.9534.02136 2.4061-.59008-.0833-.26073.1566-.63497-.7938-.23535-.6858-1.00531-1.2077-1.67571.3654-1.75174-.0801-1.31794-1.4423-.24552-1.2519-1.99085 .8199.56711 3.7831,2.85197 3.8689,1.38698-1.466.27408-3.3153-1.89131-.8777-1.25132 1.908,1.0424 1.1631-.58407.5284-1.25624-.8813.50942-3.4589.66471-1.1314-.22481 2.556-.80913-.6218-.66392-1.0232-.86195 1.2149.01248.9683-2.09008 2.1675-.68552 2.3082-.23356-1.6033-3.46511 1.1159-1.62019 2.6838.81853-2.129-2.63002-.7441-2.47252 1.5158.89341 1.5753-.37418 1.3263-1.33212 1.0095-.29484 1.0467-1.19115.684-1.39023 .6301-.10645 2.9414-1.53036 1.1097-.05507-1.6657,2.43537 3.4103-1.25938 1.1276.75149-1.1323.93592-1.6288,3.08528.3248,1.53891 2.6906-1.57015-1.7343,2.20694.9437.8312 .5525.75469-1.307.83639-1.0108,1.88544-2.3877.20177.347.59958 1.4073-.16464-.3284.66518-3.216,3.01388-.4822,1.85337 1.6173-1.15463 1.9269-.73732 1.0325.70372-.6726.44223-3.3538,2.55551-.7269,1.08066 .7385-.89769 2.3189-1.92345 1.4791-.02102 .8284,1.44077-3.3376,1.7976-.7378,2.33827 1.2245-.35782 3.685-2.14153 2.5889-.23809-.2896,1.2979-1.8795,2.38627.316,1.99728-.6528.61871-3.2723.02086-1.7892,1.05589-1.9638,2.46056 2.9613.99274 3.7503.29079-.9747,1.24114-1.4879,2.25869-2.954,3.67889 1.3891.60088 3.5724-2.09138 4.0564-1.34767 .1643,1.7026-2.8304,2.16454-2.8812,3.64987 1.315.34958 3.9415-2.612 3.0809-.21754-.0077.58852-.6716.51706-.7833,1.36669-1.495.11056-.2931,2.27884.7388.3528 .9121-1.14459 2.2089-1.68844 1.5283.24574 1.0711,1.27111-1.4053,1.7547-1.0409,1.90304-.9031.49615-2.5244,1.79788-.595,1.1608 1.1205-.91803 2.6342-2.11042 1.3609.07598 .1557,1.52788-1.1952,1.53546-1.6526,1.83594 .799,1.22251 3.6182-1.24459 1.9194.9516-.6208,1.2236-5.2999,1.66728-1.9666,1.52026 1.4602.14787 4.0904-.48489 1.6092.94787-1.947,1.943-3.3655,2.58594-6.2138,2.9734 1.6564.75957 1.0089.32189-.2557.51791 1.7523.94875-3.1053-.94512-.5118.6256-1.378.87744-1.8125-1.97642-2.461.03008-2.8157-.55101 1.2627,5.93576-1.9398,4.31573 .1301-.2997.0809-.62759.1189-.94168zm-2.9308-3.65937c.303-1.4238-3.752.05318-1.0999.0466 .3668.0022.7355.00014 1.0999-.0466zm-4.6282-2.8363c-.8951.23474-.1846,1.05789 0,0zm2.5917-.83722c-.2503-1.20968-4.4068-.30969-2.0766.121 .6919-.00539 1.4029.09099 2.0766-.121zm1.8514.01093c-.4258-.63366-.6405.73451 0,0zm2.6829-.34687c-.3763-.34456-.5297.57466 0,0zm7.8693-.35083c-.6829-.85092-.6829.85088 0,0zm-15.1804-.24127c-.7877-.61273-.5885.31197 0,0zm15.2729-.28204c-.4489-.60803-.1186.63095 0,0zm-14.4398-.6977c-.7362-.87067-.6278.60319 0,0zm.8332-.18469c-.4659-.39106-.3231.62944 0,0zm-3.007-.19165c1.3302.25285 2.3248-.73768.2254-.34106-.6758-.11239-1.3658.61542-.2254.34106zm18.9903-.65942c-1.4895-.49833-1.3381.78871-.0624.03221l.0624-.03221zm-18.1137-.70648c-.3765-.34459-.5299.57448 0,0zm.9269-2.44397c-.4493-.60793-.1183.63082 0,0zm.2551-.85529c-.247-1.29401-3.6776-.69426-1.1633-.0537 .3653.13998.7912.22409 1.1633.0537zm18.5353-.90143c-.7248-1.7236-2.5282,1.15007 0,0zm-17.5523-.62994c-.9556-.3074.0493.42184 0,0zm.8908-2.14838c.7147-.74986-1.3338.08134-.2646-.96783-.7779,1.22364-3.8725-1.81877-2.6028.36993 .8226.51123 1.9069.81763 2.8674.5979zm10.7375-2.09314c-.4342-.74485-.477.75948 0,0zm-11.4779-.17444c-.1445-.75917-.9133.66845 0,0zm2.1389-2.28271c.0318-1.53604-1.3075.85302 0,0zm.9156-.33362c-.4492-.60792-.1181.63077 0,0zm7.4978-1.04657c-.3874-.64612-.2213.55635 0,0zm-7.3125-.69769c-.1719-.61333-.6311.69793 0,0zm-1.0646-.21802c-.6541-.69212-.4239.85622 0,0zm-.6942-.31531c-.6441-.88954-.8322,1.04364 0,0zm8.3401-1.12823c1.3013-1.00481-2.4707.88832 0,0zm-2.231-1.92444c-.9078-.51234-.3155.67297 0,0zm-2.4066-2.57593c-1.5408-.78689-.756.8212 0,0zm-7.3549,27.16205c.6758-.24011.3549.36689 0,0zm3.2914-28.13525c-.6633-1.35542 1.0545.80021 0,0zm2.7676-5.27332c.7787-.81942 1.5234.35144 0,0zm1.6426-1.31665c.056-.24931.4036-.98658 1.0119-.20227-.262.26653-.7598.77742-1.0119.20227zm-.0559-1.22443c.0926-1.51272 1.7878,1.55255 0,0zm.1092-1.13952c-.6746-1.18774 1.1957.35551 0,0zm.0999-1.41303c-.1535-1.62372.5913.75647 0,0z"/>
   <path transform="matrix(.01619 .00933 -.01035 .01459 1007.4 409.25)" d="m23.888 766.01-141.21-207.2-139.78 208.17 108.83-225.9-250.17-16.966 250.05-18.695-110.39-225.14 141.21 207.2 139.78-208.17-108.83 225.9 250.17 16.966-250.05 18.695 110.39 225.14z" fill="url(#d)" fill-rule="evenodd"/>
   <path transform="matrix(.0103 .01646 -.01827 .00928 1016.6 421.09)" d="m-555.4 541.06a78.632 352.35 0 1 1 -157.26 0 78.632 352.35 0 1 1 157.26 0z" fill="url(#c)" fill-rule="evenodd" opacity=".72692"/>
   <path transform="matrix(.02093 .00114 -.00127 .01886 1014.1 406.18)" d="m-555.4 541.06a78.632 352.35 0 1 1 -157.26 0 78.632 352.35 0 1 1 157.26 0z" fill="url(#b)" fill-rule="evenodd" opacity=".72692"/>
   <path transform="matrix(.01113 -.01601 .01777 .01003 997.53 400.27)" d="m-555.4 541.06a78.632 352.35 0 1 1 -157.26 0 78.632 352.35 0 1 1 157.26 0z" fill="url(#a)" fill-rule="evenodd" opacity=".72692"/>
   <path transform="matrix(.01619 .00933 -.01035 .01459 1128.7 390.81)" d="m23.888 766.01-141.21-207.2-139.78 208.17 108.83-225.9-250.17-16.966 250.05-18.695-110.39-225.14 141.21 207.2 139.78-208.17-108.83 225.9 250.17 16.966-250.05 18.695 110.39 225.14z" fill="url(#d)" fill-rule="evenodd"/>
   <path transform="matrix(.0103 .01646 -.01827 .00928 1137.9 402.65)" d="m-555.4 541.06a78.632 352.35 0 1 1 -157.26 0 78.632 352.35 0 1 1 157.26 0z" fill="url(#c)" fill-rule="evenodd" opacity=".72692"/>
   <path transform="matrix(.02093 .00114 -.00127 .01886 1135.5 387.74)" d="m-555.4 541.06a78.632 352.35 0 1 1 -157.26 0 78.632 352.35 0 1 1 157.26 0z" fill="url(#b)" fill-rule="evenodd" opacity=".72692"/>
   <path transform="matrix(.01113 -.01601 .01777 .01003 1118.9 381.83)" d="m-555.4 541.06a78.632 352.35 0 1 1 -157.26 0 78.632 352.35 0 1 1 157.26 0z" fill="url(#a)" fill-rule="evenodd" opacity=".72692"/>
   <path transform="matrix(.01619 .00933 -.01035 .01459 1214.7 485.43)" d="m23.888 766.01-141.21-207.2-139.78 208.17 108.83-225.9-250.17-16.966 250.05-18.695-110.39-225.14 141.21 207.2 139.78-208.17-108.83 225.9 250.17 16.966-250.05 18.695 110.39 225.14z" fill="url(#d)" fill-rule="evenodd"/>
   <path transform="matrix(.0103 .01646 -.01827 .00928 1223.9 497.27)" d="m-555.4 541.06a78.632 352.35 0 1 1 -157.26 0 78.632 352.35 0 1 1 157.26 0z" fill="url(#c)" fill-rule="evenodd" opacity=".72692"/>
   <path transform="matrix(.02093 .00114 -.00127 .01886 1221.4 482.36)" d="m-555.4 541.06a78.632 352.35 0 1 1 -157.26 0 78.632 352.35 0 1 1 157.26 0z" fill="url(#b)" fill-rule="evenodd" opacity=".72692"/>
   <path transform="matrix(.01113 -.01601 .01777 .01003 1204.8 476.45)" d="m-555.4 541.06a78.632 352.35 0 1 1 -157.26 0 78.632 352.35 0 1 1 157.26 0z" fill="url(#a)" fill-rule="evenodd" opacity=".72692"/>
   <path transform="matrix(.01619 .00933 -.01035 .01459 1062.5 441.04)" d="m23.888 766.01-141.21-207.2-139.78 208.17 108.83-225.9-250.17-16.966 250.05-18.695-110.39-225.14 141.21 207.2 139.78-208.17-108.83 225.9 250.17 16.966-250.05 18.695 110.39 225.14z" fill="url(#d)" fill-rule="evenodd"/>
   <path transform="matrix(.0103 .01646 -.01827 .00928 1071.8 452.89)" d="m-555.4 541.06a78.632 352.35 0 1 1 -157.26 0 78.632 352.35 0 1 1 157.26 0z" fill="url(#c)" fill-rule="evenodd" opacity=".72692"/>
   <path transform="matrix(.02093 .00114 -.00127 .01886 1069.3 437.97)" d="m-555.4 541.06a78.632 352.35 0 1 1 -157.26 0 78.632 352.35 0 1 1 157.26 0z" fill="url(#b)" fill-rule="evenodd" opacity=".72692"/>
   <path transform="matrix(.01113 -.01601 .01777 .01003 1052.7 432.06)" d="m-555.4 541.06a78.632 352.35 0 1 1 -157.26 0 78.632 352.35 0 1 1 157.26 0z" fill="url(#a)" fill-rule="evenodd" opacity=".72692"/>
   <path transform="matrix(.01116 .00681 -.00713 .01065 1078.7 502.15)" d="m23.888 766.01-141.21-207.2-139.78 208.17 108.83-225.9-250.17-16.966 250.05-18.695-110.39-225.14 141.21 207.2 139.78-208.17-108.83 225.9 250.17 16.966-250.05 18.695 110.39 225.14z" fill="url(#d)" fill-rule="evenodd"/>
   <path transform="matrix(.00709 .01202 -.01258 .00677 1085.1 510.8)" d="m-555.4 541.06a78.632 352.35 0 1 1 -157.26 0 78.632 352.35 0 1 1 157.26 0z" fill="url(#c)" fill-rule="evenodd" opacity=".72692"/>
   <path transform="matrix(.01442 .00083 -.00087 .01377 1083.4 499.91)" d="m-555.4 541.06a78.632 352.35 0 1 1 -157.26 0 78.632 352.35 0 1 1 157.26 0z" fill="url(#b)" fill-rule="evenodd" opacity=".72692"/>
   <path transform="matrix(.00767 -.01169 .01224 .00732 1072 495.59)" d="m-555.4 541.06a78.632 352.35 0 1 1 -157.26 0 78.632 352.35 0 1 1 157.26 0z" fill="url(#a)" fill-rule="evenodd" opacity=".72692"/>
   <path transform="matrix(.01619 .00933 -.01035 .01459 1051.4 355.85)" d="m23.888 766.01-141.21-207.2-139.78 208.17 108.83-225.9-250.17-16.966 250.05-18.695-110.39-225.14 141.21 207.2 139.78-208.17-108.83 225.9 250.17 16.966-250.05 18.695 110.39 225.14z" fill="url(#d)" fill-rule="evenodd"/>
   <path transform="matrix(.0103 .01646 -.01827 .00928 1060.7 367.69)" d="m-555.4 541.06a78.632 352.35 0 1 1 -157.26 0 78.632 352.35 0 1 1 157.26 0z" fill="url(#c)" fill-rule="evenodd" opacity=".72692"/>
   <path transform="matrix(.02093 .00114 -.00127 .01886 1058.2 352.78)" d="m-555.4 541.06a78.632 352.35 0 1 1 -157.26 0 78.632 352.35 0 1 1 157.26 0z" fill="url(#b)" fill-rule="evenodd" opacity=".72692"/>
   <path transform="matrix(.01113 -.01601 .01777 .01003 1041.6 346.87)" d="m-555.4 541.06a78.632 352.35 0 1 1 -157.26 0 78.632 352.35 0 1 1 157.26 0z" fill="url(#a)" fill-rule="evenodd" opacity=".72692"/>
   <path transform="matrix(.01619 .00933 -.01035 .01459 1272.4 427.41)" d="m23.888 766.01-141.21-207.2-139.78 208.17 108.83-225.9-250.17-16.966 250.05-18.695-110.39-225.14 141.21 207.2 139.78-208.17-108.83 225.9 250.17 16.966-250.05 18.695 110.39 225.14z" fill="url(#d)" fill-rule="evenodd"/>
   <path transform="matrix(.0103 .01646 -.01827 .00928 1281.6 439.26)" d="m-555.4 541.06a78.632 352.35 0 1 1 -157.26 0 78.632 352.35 0 1 1 157.26 0z" fill="url(#c)" fill-rule="evenodd" opacity=".72692"/>
   <path transform="matrix(.02093 .00114 -.00127 .01886 1279.1 424.34)" d="m-555.4 541.06a78.632 352.35 0 1 1 -157.26 0 78.632 352.35 0 1 1 157.26 0z" fill="url(#b)" fill-rule="evenodd" opacity=".72692"/>
   <path transform="matrix(.01113 -.01601 .01777 .01003 1262.5 418.43)" d="m-555.4 541.06a78.632 352.35 0 1 1 -157.26 0 78.632 352.35 0 1 1 157.26 0z" fill="url(#a)" fill-rule="evenodd" opacity=".72692"/>
   <path transform="matrix(.01619 .00933 -.01035 .01459 1343.6 371.87)" d="m23.888 766.01-141.21-207.2-139.78 208.17 108.83-225.9-250.17-16.966 250.05-18.695-110.39-225.14 141.21 207.2 139.78-208.17-108.83 225.9 250.17 16.966-250.05 18.695 110.39 225.14z" fill="url(#d)" fill-rule="evenodd"/>
   <path transform="matrix(.0103 .01646 -.01827 .00928 1352.9 383.71)" d="m-555.4 541.06a78.632 352.35 0 1 1 -157.26 0 78.632 352.35 0 1 1 157.26 0z" fill="url(#c)" fill-rule="evenodd" opacity=".72692"/>
   <path transform="matrix(.02093 .00114 -.00127 .01886 1350.4 368.79)" d="m-555.4 541.06a78.632 352.35 0 1 1 -157.26 0 78.632 352.35 0 1 1 157.26 0z" fill="url(#b)" fill-rule="evenodd" opacity=".72692"/>
   <path transform="matrix(.01113 -.01601 .01777 .01003 1333.8 362.88)" d="m-555.4 541.06a78.632 352.35 0 1 1 -157.26 0 78.632 352.35 0 1 1 157.26 0z" fill="url(#a)" fill-rule="evenodd" opacity=".72692"/>
   <path transform="matrix(.01619 .00933 -.01035 .01459 1194.7 369.07)" d="m23.888 766.01-141.21-207.2-139.78 208.17 108.83-225.9-250.17-16.966 250.05-18.695-110.39-225.14 141.21 207.2 139.78-208.17-108.83 225.9 250.17 16.966-250.05 18.695 110.39 225.14z" fill="url(#d)" fill-rule="evenodd"/>
   <path transform="matrix(.0103 .01646 -.01827 .00928 1204 380.91)" d="m-555.4 541.06a78.632 352.35 0 1 1 -157.26 0 78.632 352.35 0 1 1 157.26 0z" fill="url(#c)" fill-rule="evenodd" opacity=".72692"/>
   <path transform="matrix(.02093 .00114 -.00127 .01886 1201.5 366)" d="m-555.4 541.06a78.632 352.35 0 1 1 -157.26 0 78.632 352.35 0 1 1 157.26 0z" fill="url(#b)" fill-rule="evenodd" opacity=".72692"/>
   <path transform="matrix(.01113 -.01601 .01777 .01003 1184.9 360.09)" d="m-555.4 541.06a78.632 352.35 0 1 1 -157.26 0 78.632 352.35 0 1 1 157.26 0z" fill="url(#a)" fill-rule="evenodd" opacity=".72692"/>
   <path transform="matrix(.01619 .00933 -.01035 .01459 962.1 526.92)" d="m23.888 766.01-141.21-207.2-139.78 208.17 108.83-225.9-250.17-16.966 250.05-18.695-110.39-225.14 141.21 207.2 139.78-208.17-108.83 225.9 250.17 16.966-250.05 18.695 110.39 225.14z" fill="url(#d)" fill-rule="evenodd"/>
   <path transform="matrix(.0103 .01646 -.01827 .00928 971.36 538.76)" d="m-555.4 541.06a78.632 352.35 0 1 1 -157.26 0 78.632 352.35 0 1 1 157.26 0z" fill="url(#c)" fill-rule="evenodd" opacity=".72692"/>
   <path transform="matrix(.02093 .00114 -.00127 .01886 968.87 523.85)" d="m-555.4 541.06a78.632 352.35 0 1 1 -157.26 0 78.632 352.35 0 1 1 157.26 0z" fill="url(#b)" fill-rule="evenodd" opacity=".72692"/>
   <path transform="matrix(.01113 -.01601 .01777 .01003 952.27 517.94)" d="m-555.4 541.06a78.632 352.35 0 1 1 -157.26 0 78.632 352.35 0 1 1 157.26 0z" fill="url(#a)" fill-rule="evenodd" opacity=".72692"/>
   <path transform="matrix(.932 0 0 .77273 1017.5 -320.58)" d="m330.01 1002.2a139.68 139.68 0 1 1 -279.36 0 139.68 139.68 0 1 1 279.36 0z" fill="url(#o)" fill-rule="evenodd"/>
   <path transform="matrix(.02967 0 0 .02674 1268.1 346.16)" d="m23.888 766.01-141.21-207.2-139.78 208.17 108.83-225.9-250.17-16.966 250.05-18.695-110.39-225.14 141.21 207.2 139.78-208.17-108.83 225.9 250.17 16.966-250.05 18.695 110.39 225.14z" fill="url(#d)" fill-rule="evenodd"/>
   <path transform="matrix(.02858 .01369 -.0152 .02576 1291 354.63)" d="m-555.4 541.06a78.632 352.35 0 1 1 -157.26 0 78.632 352.35 0 1 1 157.26 0z" fill="url(#c)" fill-rule="evenodd" opacity=".72692"/>
   <path transform="matrix(.02828 -.0142 .01576 .02548 1274 337.09)" d="m-555.4 541.06a78.632 352.35 0 1 1 -157.26 0 78.632 352.35 0 1 1 157.26 0z" fill="url(#b)" fill-rule="evenodd" opacity=".72692"/>
   <path transform="matrix(-.00029 -.02917 .03237 -.00026 1247 341.84)" d="m-555.4 541.06a78.632 352.35 0 1 1 -157.26 0 78.632 352.35 0 1 1 157.26 0z" fill="url(#a)" fill-rule="evenodd" opacity=".72692"/>
   <path transform="matrix(.01355 0 0 .01196 1165.9 559.28)" d="m23.888 766.01-141.21-207.2-139.78 208.17 108.83-225.9-250.17-16.966 250.05-18.695-110.39-225.14 141.21 207.2 139.78-208.17-108.83 225.9 250.17 16.966-250.05 18.695 110.39 225.14z" fill="url(#d)" fill-rule="evenodd"/>
   <path transform="matrix(.01306 .00612 -.00694 .01152 1176.4 563.06)" d="m-555.4 541.06a78.632 352.35 0 1 1 -157.26 0 78.632 352.35 0 1 1 157.26 0z" fill="url(#c)" fill-rule="evenodd" opacity=".72692"/>
   <path transform="matrix(.01292 -.00635 .0072 .01139 1168.6 555.22)" d="m-555.4 541.06a78.632 352.35 0 1 1 -157.26 0 78.632 352.35 0 1 1 157.26 0z" fill="url(#b)" fill-rule="evenodd" opacity=".72692"/>
   <path transform="matrix(-.00013 -.01304 .01479 -.00012 1156.3 557.34)" d="m-555.4 541.06a78.632 352.35 0 1 1 -157.26 0 78.632 352.35 0 1 1 157.26 0z" fill="url(#a)" fill-rule="evenodd" opacity=".72692"/>
   <path transform="matrix(.01619 .00933 -.01035 .01459 1330.3 523.6)" d="m23.888 766.01-141.21-207.2-139.78 208.17 108.83-225.9-250.17-16.966 250.05-18.695-110.39-225.14 141.21 207.2 139.78-208.17-108.83 225.9 250.17 16.966-250.05 18.695 110.39 225.14z" fill="url(#d)" fill-rule="evenodd"/>
   <path transform="matrix(.0103 .01646 -.01827 .00928 1339.5 535.44)" d="m-555.4 541.06a78.632 352.35 0 1 1 -157.26 0 78.632 352.35 0 1 1 157.26 0z" fill="url(#c)" fill-rule="evenodd" opacity=".72692"/>
   <path transform="matrix(.02093 .00114 -.00127 .01886 1337 520.52)" d="m-555.4 541.06a78.632 352.35 0 1 1 -157.26 0 78.632 352.35 0 1 1 157.26 0z" fill="url(#b)" fill-rule="evenodd" opacity=".72692"/>
   <path transform="matrix(.01113 -.01601 .01777 .01003 1320.4 514.61)" d="m-555.4 541.06a78.632 352.35 0 1 1 -157.26 0 78.632 352.35 0 1 1 157.26 0z" fill="url(#a)" fill-rule="evenodd" opacity=".72692"/>
   <path d="m1266.6154,612.96271c.6114-1.70456-.8219-3.3889-2.4322-2.11173-1.2003.51867-1.7887-1.21158-2.8454-.54546-.2943-.52335 2.4719-1.04362.2595-1.04831-.768-.02246-3.5852.16982-1.7083-.50833 .3595-.5939-1.2547.04175-1.5217-.90212-.7954.24829-.3274-1.11388-.4032-1.4946 .4405,1.23956 3.141.43332 1.0981-.18655-1.0458-.88457 1.5836-1.56496-.3011-1.22474 1.2349-.21247-.9505-.94418.4058-.93585-1.886-1.75598 3.3415.69457 1.711-.86884-1.0348-.45639-3.2219-1.86251-1.1191-1.93412 .0972-.558-1.6983-2.4136.0635-1.35407 1.6605.45206-1.2357-1.1478-.1803-1.69878 .9542-.4253 2.3662-.05989 1.2163-1.32803 .1455-.80376 1.6281.79489 1.5246-.03413-.2942.1485-.9683-1.56385-.9387-1.38434 1.2275.45044 2.3899-.23856 1.3995-.75025-.6787.43067-1.5489-1.50732-.215-1.0491 .41-.85166-1.5646-.85089-.5753-1.53534 .5032.67282 2.6979,1.88844 2.5838.95089-1.0818.15582-2.3179-1.41951-.5499-.899 1.8.57406.1609-1.97919-.8278-.68208-1.2736-.0151 2.6815-1.2893.0689-1.0266-1.2099.29967.7376-1.56772 1.1167-.62982 1.6345-.17607-1.0646-2.49836.8303-1.25874 2.0634.67996-2.3371-2.65608.0718-1.60853 .9446-.16417-.0934-1.42899.9979-1.75252-.5116-.71235 2.2623-1.67379.7286-.49761-1.0168,1.49685 2.3453-.7872.8618.49406-1.5993,1.67121-.0162,1.42622.9496,1.03103-.753.78785-.9061.99164.1582.92565-.7316.4321-.7729,1.43279-1.7049,1.38268 .5523.39974 2.8046-.68198 1.1738.49596-1.6128,1.5923.7957.39473 1.5576.15925 .0053.96452-3.0421,2.89262-.9605,1.79496 .8198-.9995 1.4117-.84734 1.0478.35921 .1771.7747-2.2163,1.07318-.5532,1.44445 .8651-.10402 2.8079-1.84291 1.8492.12016-.6337.80098-.4776,1.27155.2029,1.30791-1.0544.1681-1.6682.13586-1.463.81572-.4161,2.18536 2.4859.122 2.9533.22461-.213.94977-2.3899,2.35466-1.6472,2.71623 1.1565-.25801 3.4669-2.26139 2.109.03083-.4116.37301-2.7203,1.66704-.9887,1.58654 .9678-.6479 2.1464-1.34082 1.6447.26447-.2691.23664-1.405.81725-.9263,1.53237 .8853-.31391 2.4885-2.55987 2.1534-.35638 .3518,1.54332-2.1153,1.44272-1.8396,2.44016 .8249.02599 2.4272-2.19735 1.6231-.2634 .0388.95024-1.0251,1.548-1.3395,1.59476 .6834.53974 2.685-.6641 1.3297.83976-.8125.69627-3.6266,1.10121-1.1132.98492 1.0103-.06267 2.5921-.20309.9543.71415-1.0084,1.46362-3.5196,1.85222-4.4101,2.35523 1.4966.33451-1.3525.13215-.0158.4394-.7043.11277-1.8559-.66629-1.0168.36599-1.0649.14839-1.1176-1.14918-1.773-.1364-1.8431.12187.8683,4.49565-1.3493,3.24395 .0198-.20413.1144-.40049.0744-.60953zm-2.2148-2.76514c-.1608-1.22939-2.7698.29785-.5024.03457l.2517-.01138 .2507-.02319zm-3.497-2.14313c-.7069.11523-.0724.84017 0,0zm1.9585-.63269c-.6989-1.18756-3.4219.17843-1.1412.11968 .3832-.0038.7644-.05376 1.1412-.11968zm1.3986.00824c-.3314-.4713-.3971.56683 0,0zm2.0275-.26202c-.3076-.23617-.3104.42018 0,0zm5.9461-.26508c-.4663-.64931-.4658.64915 0,0zm-11.4706-.18237c-.6343-.50078-.4644.26514 0,0zm11.5405-.21307c-.3378-.49688-.0951.50351 0,0zm-10.911-.52716c-.4305-.66714-.496.45113 0,0zm.6294-.13959c-.3547-.29058-.1827.472 0,0zm-2.272-.14484c1.1013.22869 1.4945-.62663.0577-.2625-.2559-.10295-.914.58276-.0577.2625zm14.3496-.49829c-.9084-.49194-1.2447.73275 0,0zm-13.6872-.53381c-.3077-.236-.3101.42018 0,0zm.7004-1.84668c-.338-.49693-.0952.50331 0,0zm.1928-.64624c-.4471-1.16367-2.6266-.25303-.5597.05167l.2825.01757 .2772-.06924zm14.0056-.68122c-.4886-1.26981-1.7948.90604 0,0zm-13.2628-.47595c-.6838-.34433-.0477.36133 0,0zm.673-1.62341c.1191-.2383-.7294-.61083-.3304-.58606-.6331.31372-2.9728-1.21932-1.5982.27354 .5793.32436 1.277.43057 1.9286.31252zm8.1134-1.58161c-.2957-.49438-.2687.49462 0,0zm-8.6728-.13177c-.2071-.51429-.6205.51977 0,0zm1.6162-1.72485c.0352-1.11188-.884.61585 0,0zm.6919-.25214c-.3381-.49701-.0952.50363 0,0zm5.6653-.79077c-.2466-.4739-.1746.39132 0,0zm-5.5254-.52722c-.2278-.40862-.3225.46939 0,0zm-.8044-.16474c-.4575-.52547-.2819.63882 0,0zm-.5246-.23828c-.5105-.68499-.6033.83024 0,0zm6.3018-.85248c.8325-.71401-1.7123.65578 0,0zm-1.6856-1.45416c-.5809-.43026-.2529.5119 0,0zm-1.8185-1.94641c-.9023-.68234-.792.68597 0,0zm-5.5574,20.52417c.4959-.24281.245.2881 0,0zm2.487-21.25952c-.4827-.97013.7509.55076 0,0zm2.0912-3.98462c.7538-.63635.946.29349 0,0zm1.2412-.99487c.0265-.24293.4558-.8254.7125-.13901-.0781.31421-.5157.41845-.7125.13901zm-.0422-.92524c-.0777-1.29609 1.4655,1.27765 0,0zm.0824-.86102c-.4978-.90963.8473.31991 0,0zm.0754-1.06769c-.1974-1.35622.5015.56648 0,0z"/>
   <path d="m1290.0955,596.12634c-1.1019-3.14307 2.1606-3.6273 4.166-2.64412 1.19-1.26003 4.1332-.56678 1.1379-1.78069 .44-.88944 5.984.45541 3.1882-1.37639 2.2368,1.23239 4.2234-4.28514 1.0052-1.8346-2.3635-.03147 2.3425-2.02488-.4817-2.7071 1.6546.37284.1222-.35281 1.0695-.92907-.9085-.79363.741-1.39448-1.4263-.82922-3.0417.85367-1.1753-.78756.3575-1.43758 2.7732-1.46695-2.2754-1.34386.6647-2.99908 .7125-1.74059-3.1098,1.1561-1.1521-1.08158 2.4688-1.91375-3.5889-1.1705-1.1489-3.21943-1.4698-.30044-2.5333,1.20672-1.3328-.79149 2.5595-1.7172-3.4213.05728-1.2045-1.79699 1.6033.27288.974-1.84403.225-1.91157 1.6668-.72077 1.1822-2.2217-.3818-.50718-1.4578,1.24726-3.2163.4312-.7184-.12735 1.7744-1.99582-3.9394.8563-1.176-1.99649 1.5512.86738 2.9057.06282.4114-.4703-.3643-.94138 2.9148.0452.6191-1.41804-1.8128.57057-1.7925-.89426-1.4124-1.8487-3.2135,1.77634.3771-1.3191.0097-1.938-2.4095,1.01-.9692-3.35236-3.3753-3.23476-.542-.24539 1.8542,2.3486-.413,1.06488-2.459-1.77781 2.8697,3.73048-.6359,1.69866-2.2074-1.30311 1.411,2.05774-1.0129,1.05065 .846,1.36744 3.2217,2.32503.1638,1.64583-1.227-.65325 2.7917,2.88119.0187,1.56619-3.4848-2.04422.8637,2.38557.4307,2.10893-1.3083-1.16383-3.2073-2.15855-2.0303.46543 3.0455,1.58439-.614,1.42376-1.9042.33623-.979.55457 2.2481,3.40626-.3199,2.76039 1.8102-.06254 2.8961,1.21814 1.6194,2.33608-1.9073.17253-4.744-2.10478-2.2661.68188 1.0792,1.07204 2.246,2.70876-.1017,1.49798-1.0755-1.34525-3.3568-1.20716-1.4166.50529 1.6299.56438 2.8161,3.14875.2667,1.54035-2.9315-1.63715-.0191,1.79839.0583,2.55045-.9029.6604-3.3934-3.3543-2.7532-.33056-1.2827,1.26689 4.6855,3.78924 1.1645,2.626-2.2775-2.43277-1.0516,2.38653.7006,2.18863-1.0154.81255-3.6267-.81063-1.4706,1.32975 1.3371.75536 3.9189,1.24731.9453,1.08567-4.3752-.65601 1.6164,3.23822 3.1893,3.42732 .8864.27696 2.6246.20035.901.7984 1.2291.14371 1.0699.25555 2.3085.2267-1.2491,1.64062 1.8306-1.23181 2.1876.43007 1.4235.64441-.788,6.11619 1.3501,3.74931l-.0241-.46078zm2.8359-3.54083c.2952-1.60519 3.5054.52032.5312.04028l-.5312-.04028zm4.4781-2.74445c.7686.10023.2593,1.09109 0,0zm-2.5076-.81018c1.0856-1.60257 4.2859.42261.998.13358l-.5032-.02942-.4948-.10416zm-1.7915.01062c.4215-.63186.5727.74704 0,0zm-2.5961-.33563c.42-.36824.3974.63454 0,0zm-7.6143-.33941c.6216-.8867.6681.89674 0,0zm14.6887-.23353c.6312-.68054.592.37166 0,0zm-14.7783-.27288c.3935-.64482.1474.62566 0,0zm13.9722-.67505c.6926-.95001.6165.62935 0,0zm-.8062-.17877c.4708-.4188.2412.66154 0,0zm2.9096-.18543c-2.6712.10037-.178-1.04867.5234.04517l-.5234-.04517zm-18.3754-.63806c1.3957-.59411 1.2491.88854 0,0zm17.5272-.68359c.4201-.36821.3972.63464 0,0zm-.8969-2.36481c.3934-.64497.1476.62562 0,0zm-.2469-.82758c1.2348-1.90241 3.6254.24342 0,0zm-17.9349-.87225c.8698-1.68957 2.0216,1.31855 0,0zm16.9838-.60956c.8842-.46759.0376.47656 0,0zm-.8621-2.0788c.2677-1.09745 1.2759-.58098 3.0406-1.29049-.1652,1.25984-2.0511,1.46166-3.0406,1.29049zm-10.3895-2.02532c.4028-.6907.3823.7092 0,0zm11.1059-.16871c.1852-.77443.8177.74873 0,0zm-2.0695-2.20886c-.0547-1.42584 1.1897.82424 0,0zm-.886-.32281c.3934-.64504.1477.62563 0,0zm-7.2548-1.0127c.3087-.6861.2627.54888 0,0zm7.0757-.67511c.2115-.6203.546.75759 0,0zm1.03-.21094c.6121-.73679.4134.90847 0,0zm.6718-.30511c.6072-.82776.6665,1.02187 0,0zm-8.0698-1.09168c-1.0358-.95387 2.1539.8937 0,0zm2.1585-1.86212c.8267-.55187.3127.67513 0,0zm2.3286-2.49249c1.1689-.8556.8313.81032 0,0zm7.1167,26.28235c-.5881-.32-.3349.40873 0,0zm-3.1848-27.224c.623-1.32763-.9441.76953 0,0zm-2.678-5.10254c-.4617-.75856-1.8633.34122 0,0zm-1.5893-1.27399c-.7893-1.72242-1.6411,1.08514 0,0zm.0541-1.18481c-.3386-1.36432-1.417,1.56602 0,0zm-.1056-1.10254c.6406-1.13089-1.0825.36618 0,0zm-.0966-1.36725c.3201-1.69262-.6479.69708 0,0z"/>
   <path d="m1213.4524,622.79108c-.3529-1.04733.2879-2.46333 1.4938-1.74342 .711.78453 1.4561-.38357 1.9576-.31614 .583.42994.8082-.4001.0445-.32143-1.1528-.59564 1.1312-.34814 1.5658-.39469 .5371-.0472.7458-.12419.1158-.27166-.6867-.63988.605.01536.8052-.64762 .3119-.36949.8015-.02743.4431-.48974 .1314-.39846.2739-1.19644-.2517-.48183-.4119.63785-1.8425-.15283-.6149-.36603 .85-.27365-.3429-1.19268-.1553-.99682 .8068.13962.1443-.10536.2457-.29975 .5896-.26213.0401-.36857-.0043-.50065 .8324-1.02778-1.1792.27164-1.6507-.19093 .3252-.65646 1.6945-.76342 1.9517-1.69456-.7885.38659-1.1428-.55258-.3806-.83931 .5341-1.05349-.434-.16866-.9023-.16685 .1667-.64845 1.2212-.96593.3992-1.505-.5509-.11152-1.6306-.03029-.7706-.73944 .1461-.90231-1.2201.48355-1.1175-.16698 .42.11806.2153-1.00394.8668-1.02614-.4722-.08104-1.6743.43488-1.5415-.40985 .4207.40981.0399-.57112.5177-.04804 .4933-.28911.806-1.10882-.0273-.90399-.3882-.55986.497-.5193.496-.57907 .4328-1.33561-.8264.21402-1.3498.33189-.5779.32195-1.15-.27644-.2516-.30384 .705.07352 1.0605-.946.1486-.5941-.88.49457-.9684-.46523-.3013-.70887 .3188.10161 1.6248.48188.7428-.04169-.5037-.09733-1.1252-.63906-.1785-.4986 .3587.06979.8258-.12039.2114-.18044-.121-1.09695-1.4284.27215-1.2836-.84418 .141-.38255.6719-.93926.0322-.48933-.5049.39449-1.1931.02039-.356-.29719 .3858-.19053.9889-1.49589.175-.83047-.9312.14155.0187-1.02323-.8014-1.16552-.2012-.45699.1228-.51464-.4261-.65867-.1783-.40333-.9792-.39318-.3303-.02041 .4966.34137.2158.94884-.2514.41134-1.4865-.64375.9191.79044.1279,1.29555-.3461-.19065-1.6056-.84302-.7729-.02465 .8894.66083-1.142-.04689-.1712.59011 .3708.36948.4134.80642 1.0075.77835-.2446.41404-2.0087-.61481-1.0473.27684 .675.18628.8534,1.24049-.0078.61103-.3702-.30132-1.4445-.71902-.7568.12333 .0959.53453 1.2735.9065 1.1514,1.18652-.5547.04379-1.6511-1.66485-1.5475-.43942-.2095.78378 1.7359,1.25661.4495,1.4241-.5109.08082-1.748-1.30407-1.476-.20126 .0669.51475 1.1718,1.40235.0833,1.18663-.5009.23591 1.6801.06577.8074.61669 .9977.95965-1.2417,1.15497-1.5424.32011-1.1278-.57668.2408,1.00063.5601,1.3333 .4904.3521.6504.86981-.1229.56612-.4269-.12809-1.6053-1.15165-1.5768-.65233 .1363.85521.8163,1.13348 1.4368,1.52049 .4438,1.04344-1.0686.07536-1.4084-.1846-.537-.17081-.1594.65828-.0954.8378 .3148-.13189.0759.58992.6151.51798 .4014,1.1097-.9214.13923-1.2321-.3512-.7175-.43168-.269.84114-.4135,1.20319 .1542.3644.7438.24787.5646.57077 .4414-.02148.8292.44367.9599.74944-.6838.18677-1.1894-1.07103-1.5681-.7377 .1453.75717.7399,1.72452 1.2189,1.72418-.3955.50249-1.9269-.55476-1.0929.52046 .3273.5731 1.7185.61214 1.7454.86033-.6118.06613-1.8914-.17998-2.0859.07422 .7399.55979 1.461,1.20622 2.1939,1.70077 .4663.12953 1.7147.20816 1.6693.51506-1.1011.27216.9823.06827.0119.32959 .4471.09579 1.452-.48372.726.25156 .6592.3573.9477-.92588 1.1941-.15379 1.4915.2269.0827,1.82761.5371,2.67315 .5873.25656.7381-.10431.5916-.6227zm1.6611-2.07404c-.0654-.8676 2.0242.08197.5659.02691-.1889.0023-.3782-.00466-.5659-.02691zm2.623-1.60748c.5301.0862.0547.6303 0,0zm-1.4689-.47455c.311-.78722 2.5108-.07527 1.0755.08385-.3604.0224-.721-.02236-1.0755-.08385zm-1.0492.00623c.2608-.36121.295.42586 0,0zm-1.5206-.1966c.2378-.16099.1886.30638 0,0zm-4.46-.19885c.3494-.48684.3496.48677 0,0zm8.6038-.13678c.4168-.40511.3812.23654 0,0zm-8.6563-.15979c.2668-.35808.065.36725 0,0zm8.1841-.39545c.3229-.50051.3721.33855 0,0zm-.4722-.10467c.2681-.22704.1464.3709 0,0zm1.7042-.10865c-.4523.22621-1.3113-.38484-.3624-.20983 .2559-.14893 1.0698.34761.3624.20983zm-10.7631-.37378c.7056-.37149.8887.5448 0,0zm10.2662-.40039c.2379-.16088.1885.30637 0,3e-005v-3e-005zm-.5253-1.38513c.2668-.35785.0648.36739 0,0zm-.1446-.48474c.09-.76665 1.9903-.33385.6281-.01894-.1983.07218-.4277.11076-.6281.01894zm-10.5052-.51092c.1262-.84422 1.2633.42627.2567.09757-.0786-.02963-.2096-.00174-.2567-.09757zm9.948-.357c.4197-.2143.1047.23806 0,0zm-.5048-1.21765c-.3303-.32887.7637-.12592.15-.54853 .3616.68388 1.9585-.85868 1.5256.15335-.4683.357-1.0966.51352-1.6756.39518zm-6.0856-1.18634c.217-.37949.2167.37958 0,0zm6.5052-.09882c.1455-.36361.4348.38794 0,0zm-1.2122-1.29376c-.0222-.91678.7236.51177 0,0zm-.519-.18915c.267-.35787.0648.36757 0,0zm-4.2494-.59314c.2096-.36611.118.30323 0,0zm4.1445-.39544c.1677-.31075.2588.36152 0,0zm.6033-.12354c.3431-.39416.2114.47893 0,0zm.3935-.17877c.3774-.53826.5398.64474 0,0zm-4.7268-.6394c-.5154-.48599 1.1339.42186.0827.03522l-.0523-.02227v-1e-005l-.0304-.01294zm1.2643-1.0907c.3646-.30081.2002.36453 0,0zm1.364-1.4599c.6397-.45681.6398.45452 0,0zm4.1685,15.39453c-.4411-.1347-.1556.18159 0,0zm-1.8654-15.94617c.3298-.74311-.5557.41608 0,0zm-1.5686-2.98871c-.4739-.42999-.8173.15078 0,0zm-.9309-.74621c-.2939-.16045.1741-.26085-.2818-.34593-.6186-.02001-.0101.78381.2818.34593zm.0316-.69403c.3222-.37172-.6909-.30546-.2397.03307-.6452.18146.1505.31319.2397-.03307zm-.0618-.64576c.3783-.64673-.6467.21921 0,0zm-.0568-.8009c.0629-.85451-.3459.32819 0,0z"/>
   <path transform="matrix(.01619 .00933 -.01035 .01459 893.36 482.57)" d="m23.888 766.01-141.21-207.2-139.78 208.17 108.83-225.9-250.17-16.966 250.05-18.695-110.39-225.14 141.21 207.2 139.78-208.17-108.83 225.9 250.17 16.966-250.05 18.695 110.39 225.14z" fill="url(#d)" fill-rule="evenodd"/>
   <path transform="matrix(.0103 .01646 -.01827 .00928 902.62 494.41)" d="m-555.4 541.06a78.632 352.35 0 1 1 -157.26 0 78.632 352.35 0 1 1 157.26 0z" fill="url(#c)" fill-rule="evenodd" opacity=".72692"/>
   <path transform="matrix(.02093 .00114 -.00127 .01886 900.13 479.49)" d="m-555.4 541.06a78.632 352.35 0 1 1 -157.26 0 78.632 352.35 0 1 1 157.26 0z" fill="url(#b)" fill-rule="evenodd" opacity=".72692"/>
   <path transform="matrix(.01113 -.01601 .01777 .01003 883.54 473.58)" d="m-555.4 541.06a78.632 352.35 0 1 1 -157.26 0 78.632 352.35 0 1 1 157.26 0z" fill="url(#a)" fill-rule="evenodd" opacity=".72692"/>
   <path transform="matrix(.01116 .00649 -.00713 .01016 930.55 429.13)" d="m23.888 766.01-141.21-207.2-139.78 208.17 108.83-225.9-250.17-16.966 250.05-18.695-110.39-225.14 141.21 207.2 139.78-208.17-108.83 225.9 250.17 16.966-250.05 18.695 110.39 225.14z" fill="url(#d)" fill-rule="evenodd"/>
   <path transform="matrix(.00709 .01146 -.01258 .00646 936.93 437.38)" d="m-555.4 541.06a78.632 352.35 0 1 1 -157.26 0 78.632 352.35 0 1 1 157.26 0z" fill="url(#c)" fill-rule="evenodd" opacity=".72692"/>
   <path transform="matrix(.01442 .00079 -.00087 .01313 935.21 426.99)" d="m-555.4 541.06a78.632 352.35 0 1 1 -157.26 0 78.632 352.35 0 1 1 157.26 0z" fill="url(#b)" fill-rule="evenodd" opacity=".72692"/>
   <path transform="matrix(.00767 -.01115 .01224 .00699 923.78 422.87)" d="m-555.4 541.06a78.632 352.35 0 1 1 -157.26 0 78.632 352.35 0 1 1 157.26 0z" fill="url(#a)" fill-rule="evenodd" opacity=".72692"/>
   <path transform="matrix(.00614 .00354 -.00392 .00553 983.53 353.11)" d="m23.888 766.01-141.21-207.2-139.78 208.17 108.83-225.9-250.17-16.966 250.05-18.695-110.39-225.14 141.21 207.2 139.78-208.17-108.83 225.9 250.17 16.966-250.05 18.695 110.39 225.14z" fill="url(#d)" fill-rule="evenodd"/>
   <path transform="matrix(.0039 .00624 -.00692 .00352 987.04 357.59)" d="m-555.4 541.06a78.632 352.35 0 1 1 -157.26 0 78.632 352.35 0 1 1 157.26 0z" fill="url(#c)" fill-rule="evenodd" opacity=".72692"/>
   <path transform="matrix(.00793 .00043 -.00048 .00715 986.09 351.94)" d="m-555.4 541.06a78.632 352.35 0 1 1 -157.26 0 78.632 352.35 0 1 1 157.26 0z" fill="url(#b)" fill-rule="evenodd" opacity=".72692"/>
   <path transform="matrix(.00422 -.00607 .00674 .0038 979.8 349.7)" d="m-555.4 541.06a78.632 352.35 0 1 1 -157.26 0 78.632 352.35 0 1 1 157.26 0z" fill="url(#a)" fill-rule="evenodd" opacity=".72692"/>
   <path transform="matrix(.01619 .01332 -.01035 .02084 900.47 365.3)" d="m23.888 766.01-141.21-207.2-139.78 208.17 108.83-225.9-250.17-16.966 250.05-18.695-110.39-225.14 141.21 207.2 139.78-208.17-108.83 225.9 250.17 16.966-250.05 18.695 110.39 225.14z" fill="url(#d)" fill-rule="evenodd"/>
   <path transform="matrix(.0103 .0235 -.01827 .01325 909.73 382.21)" d="m-555.4 541.06a78.632 352.35 0 1 1 -157.26 0 78.632 352.35 0 1 1 157.26 0z" fill="url(#c)" fill-rule="evenodd" opacity=".72692"/>
   <path transform="matrix(.02093 .00163 -.00127 .02693 907.24 360.91)" d="m-555.4 541.06a78.632 352.35 0 1 1 -157.26 0 78.632 352.35 0 1 1 157.26 0z" fill="url(#b)" fill-rule="evenodd" opacity=".72692"/>
   <path transform="matrix(.01113 -.02286 .01777 .01433 890.64 352.47)" d="m-555.4 541.06a78.632 352.35 0 1 1 -157.26 0 78.632 352.35 0 1 1 157.26 0z" fill="url(#a)" fill-rule="evenodd" opacity=".72692"/>
   <g transform="matrix(.43858 0 0 .39518 963.64 189.16)" fill="url(#n)" fill-rule="evenodd">
    <path transform="matrix(.067658 0 0 .067658 -37.241 517.84)" d="m23.888 766.01-141.21-207.2-139.78 208.17 108.83-225.9-250.17-16.966 250.05-18.695-110.39-225.14 141.21 207.2 139.78-208.17-108.83 225.9 250.17 16.966-250.05 18.695 110.39 225.14z"/>
    <path transform="matrix(.065176 .034653 -.034653 .065176 15.133 539.27)" d="m-555.4 541.06a78.632 352.35 0 1 1 -157.26 0 78.632 352.35 0 1 1 157.26 0z" opacity=".72692"/>
    <path transform="matrix(.06448 -.035931 .035931 .06448 -23.644 494.89)" d="m-555.4 541.06a78.632 352.35 0 1 1 -157.26 0 78.632 352.35 0 1 1 157.26 0z" opacity=".72692"/>
    <path transform="matrix(-.00066754 -.073812 .073812 -.00066754 -85.3 506.9)" d="m-555.4 541.06a78.632 352.35 0 1 1 -157.26 0 78.632 352.35 0 1 1 157.26 0z" opacity=".72692"/>
   </g>
   <path transform="matrix(.34617 0 0 .32616 1400.9 488.73)" d="m-482.08-122.68a121.2 121.2 0 1 1 -242.4 0 121.2 121.2 0 1 1 242.4 0z" fill="url(#m)" fill-rule="evenodd"/>
   <path transform="matrix(1.078 0 0 1.078 668.06 314.08)" d="m476.74 140a7.5374 7.5374 0 1 1 -15.075 0 7.5374 7.5374 0 1 1 15.075 0z" fill="url(#e)" fill-rule="evenodd"/>
   <path transform="matrix(1.078 0 0 1.078 713 303.04)" d="m476.74 140a7.5374 7.5374 0 1 1 -15.075 0 7.5374 7.5374 0 1 1 15.075 0z" fill="url(#e)" fill-rule="evenodd"/>
   <path d="m909.57 620.55c-2.1013 4.1173-4.6269 4.7757-7.3707 3.1917-4.3578-2.4228-9.7443-0.37172-14.839-1.2216-2.4108 1.1665-7.1954 0.59143-6.5727 1.6526 6.7769 0.70804-4.5887-0.11281-6.3389 0.5397-0.74085 0.97432-4.6838-0.03841-4.0738 0.79493 3.4522 0.46547-3.6631 0.94009 1.4942 0.80499 1.949 1.5692 6.2425-0.95934 9.5232 1.1829-3.2762-0.02206-7.9759-0.69255-11.087 0.68765-0.37018 0.04372-7.4956 0.3383-1.9407 0.61962-5.1727 1.3567 8.4001-5.1e-4 6.8735 0.93285-3.0872 0.14531-7.2994 0.57782-6.9342 1.1995-3.4552-0.3613-3.541 0.74306 0.00268 0.53874 2.7677 1.4993-6.0772-0.43803-6.1517 2.0128-2.4519 0.07248-6.7444 0.86062-1.7859 0.61208 2.9056-0.40758-2.4266 1.1278 2.2139 0.41335 2.4288 0.52264 7.1532-0.54439 11.015 0.53035-1.7051 1.2729-8.7926 0.79086-12.78 2.03 5.8263-0.11892-7.5718 1.0712-0.59275 0.69852 5.0637 0.08856 8.0888-0.47305 14.158 0.36506 1.3611 0.78483-6.5065 0.75446-8.6722 1.1672-3.075 0.46875-9.4413-0.03413-9.0842 1.2767-4.463 1.1009 7.6794 0.6095 9.9589 0.87926 4.0252 0.28104 1.0127 0.04915-1.0154 0.82314 2.6516-0.39897 8.6771 1.6954 2.5773 0.6809-3.6463 0.02892-11.903-0.73267-12.835 1.7522 2.0659 0.70021 9.6082-0.01349 7.1663 1.823 1.8041 0.39993-5.4758-1.0077-7.0165 0.37425-3.4972 1.2663 7.2313 0.97698 0.88347 1.4371-6.9763 1.8822 9.4837 2.1539 1.2511 2.4957-6.0769 1.099-1.0283 3.7049 1.819 3.4121-3.5803-1.8519-7.3075 2.1971-1.9462 2.4852 4.8095 2.1435-6.5042-0.88968-1.5875 1.9425 3.2043 0.37248-4.0722-0.07634-1.0525 2.9343 3.4054-1.7573 3.4474 2.6418 7.0692 1.813 1.0556-1.7318 2.4639-0.69527 2.3684-1.955 6.115-0.44668-5.0658-1.4254 1.1789-1.4182 3.0256-0.34457-2.9705-1.5374 1.7801-1.103 1.7212-0.07219 11.947-1.6964 5.4044-1.5414-3.787-0.68878-6.5855-0.05485-10.471 0.10443-3.984 0.96795 5.343-1.4353 7.1178-1.3796 4.4326 0.6232 11.22-0.03636 14.156-0.66808-1.0188-0.24099-3.2908 0.06788-0.90762-0.3796-3.0637-0.21118 0.98204-0.97312-2.911-0.41675-4.4066 0.84083 3.3969-1.107-1.3456-0.27548-1.8027-0.45531-6.2492 0.11257-6.7834-0.34199 3.7761-1.245 8.2932-0.38331 11.651-0.70948 2.5238 0.56748 8.3348-0.20132 3.3637-1.0032-4.0731 0.84883 1.63-1.0537-2.0728-0.58966-1.5045-1.53-9.0633 0.24804-9.867-0.47614 5.4173-1.2158 10.891-0.95708 16.316-1.2282 1.4603 0.07469 8.3325-0.25797 3.9284-1.3421 1.4518-1.6632-5.4828-0.78189-8.3501-1.2234-4.992 0.09304 6.0151-1.5387 8.2822-0.60541 2.7349 0.54312 2.019-0.68779 2.8551-0.43359 3.6281 0.41129 9.3265-0.78495 4.2007-1.7096-2.866-0.39931-4.2157 0.26674-0.51314-0.75114-1.9739-0.3549-7.6879-0.15829-2.9094-0.7847 2.6019-0.00749 11.842 0.13264 7.4785-0.63353 4.7461-0.94775-4.1715-0.29107 1.5283-1.0818 1.5181 0.09924 9.6747 0.81671 6.3829-1.3073-1.9352 0.60125 0.94969-0.97377-2.293-0.29134-2.5986 0.3668-5.2991-0.23105-1.2714-0.48429 3.7894-0.6672 9.7202 0.44056 12.152-0.71471-4.0303-0.79781-1.0761-0.65233-0.95426-1.0127-4.3698 0.24644 0.336-0.47006-0.98428-0.50825-2.014 0.70078-6.8862-0.39807-1.9765-0.47966 4.2821-0.23734 8.5521-0.58274 12.793-0.58075-3.2588-0.02497-1.7603-0.90838 0.36174-1.1578-2.7577-0.81133-6.0307-0.27489-6.4804-1.2663-4.8431-0.04365-7.4289 0.20185-13.02 0.06052 5.2343-0.80939 10.6-1.5506 15.908-1.0234 2.4744-1.2191 6.6155 0.11519 7.0182-0.89936 7.4226-0.57593-7.1946-0.19633-0.24851-0.60146 4.642-1.0503-9.5926 0.38549-3.6905-1.5887-1.9074 0.43335-8.641 0.47361-7.9703-0.20258-2.5074 0.65867-7.8149 0.78969-2.2625 0.12868 4.6676-1.68 14.185-0.57544 16.186-1.2572 2.3457 0.53744 6.8681 0.03686 1.9607-0.3043-2.5032-0.66846 7.5723-0.36447 1.4483-0.7775 3.367-0.40592 2.4947-0.43105-0.36952-0.50039 3.0083-0.38126-2.905-0.37043 1.0707-0.62277 2.5565-0.44021-4.6335 0.03069-0.66355-0.60072-2.8382 0.02382-1.5212-0.37867-3.3841-0.45591 2.6643-0.73693 9.1322-0.25177 9.7469-0.97994-1.3637 0.00415-2.7586-0.14805-0.48848-0.51052-1.5726 0.0185-6.4828 0.94502-3.0033-0.04935-2.5019-0.23848 2.89-0.98279-0.70977-0.43067-1.9043-0.66758-8.9543 1.5295-5.7138-0.42021-3.0913-0.35602-7.6463 0.95722-8.243 0.44055-1.8586-0.67925-8.4732-0.83099-12.655 0.15526-7.4532 1.992 7.0001-3.5768-0.21865-2.8173l-6.2356 0.1246zm-26.798 6.4038c0.7247 0.4191-1.3746-0.02418 0 0zm-8.6587 4.4044c1.8816 0.17722 6.1021 0.48258 1.5854 0.5131-2.5393 0.16376-7.5346-0.06375-2.2763-0.44489l0.69097-0.06821zm4.5669 0.52673c1.6554-0.16011 0.48692 0.4229 0 0zm-14.942 1.1266c1.398 0.397-1.4205 0.05038 0 0zm54.986 4.7556c-1.1303 0.42541-2.2807 0.08529 0 0zm-5.4404 3.0874c1.1314 0.12773-1.9026 0.0773 0 0zm-8.5514 0.58526c2.1858 0.28186-3.6364 0.00635 0 0zm-39.569 4.7409c3.5692 0.33548 0.74354 0.72589 0 0zm29.501 1.6681c-0.18411 0.67678-1.3105-0.22689 0 0zm-33.899 6.3212c0.93413 0.40197-1.218 0.0948 0 0zm6.0994 0.05853c-0.758 0.95098-0.62902 0.05312 0 0zm-4.8274 0.19025c1.4216 0.0481-0.90178 0.42443 0 0zm1.18 0.30725c0.71975 0.42636-1.4005-0.03447 0 0zm2.0229 0.61456c-2.0037 2.3013-2.4196 0.36951 0 0zm3.77 2.8387c1.2866 0.39593-1.7508 0.14901 0 0zm-5.2718 0.23413c2.5542 0.20843-2.2174 0.68503 0 0zm-2.3754 0.27801c2.9913 0.32649-5.4016 0.5359 0 0zm-3.2183 1.0243c5.7718 1.1392-1.1057 0.90893 0 0zm-3.3562 3.1314c-0.8059 2.3438 5.181-0.3836 0.52405 0.07323l-0.52405-0.07323zm1.839 1.2145c-3.2581-1.2305-0.83897 2.756-1.9099 0.91063-0.70277-0.76469 4.7407-0.46801 1.9099-0.91063z" fill-opacity=".49057"/>
   <path d="m1290.3217,597.60248c2.1623-.19081 3.8567,1.92685.5653,1.62852-2.0401.62626-2.0551,1.85766.0331,1.27525-1.091.51662-3.7853,1.54556-1.0302,1.13738-2.5882,2.12106 2.4959.51079 2.5109,1.25464 1.6885,1.15532 3.4849.66145 6.0018.48056 .5,2.46988 6.1813,1.71025 8.5203,2.15426 2.973-.5618 6.2864.9922 8.332,1.00685 1.6763-2.27961.7062,1.03174 3.6264-.23311-3.8441,1.3384 2.8917-.08479.1487,1.11311 4.3565-1.08255 8.629,1.43022 13.0007.67779-3.4174-.08895 1.7825-.77677-1.6227-.63042-4.6753.04537 2.9903-.95697-1.1933-.73548 2.0825-.6843-5.585-.02426-1.3679-.8465-2.5342.08749-3.8249-.30094-.4935-.58592-1.47-.3976-6.3542-.13451-1.7439-.42945 1.9632-.33884-6.1688-.60213-1.7143-1.0147 3.2708-.02747-2.6127-1.06559-2.0404-.79175-2.6343.70865-3.9027-1.29134-.5627-1.00312 1.6505-.45524-7.8612-.37057-2.2563-.82843 4.9341-.79542-7.5733-.22585-1.72-.91295 2.4698-.59838-6.9936-.76477-1.1544-.84913 4.7824-.95808-8.1729-.67114-2.8988-1.00605 3.1718-.47901-6.1216-.24189-1.8497-1.08766-1.8959-.58794-7.4575,1.03608-2.6989-.71335-4.6211-.16606-9.2761.57771-13.7947,1.44387-.7972.28985-9.3583-2.1661-4.5975-.50421zm1.6536,1.8266c.8169,1.06989-2.7609.23045 0,0zm-.5527,2.05395c-1.0846.40667-.7051-.43573 0,0zm2.9182-.46557c-1.0716,1.68425-3.3008.23465 0,0zm1.4295-.50446c-.2312.55648-.8336-.6259 0,0zm2.4618-.62872c-.2902.41817-.8292-.45873 0,0zm6.5037-2.03205c-.2373.59769-.7588-.53565 0,0zm-11.5588,4.1792c-.1541.64525-.6475-.29023 0,0zm12.1937-4.05664c-.1503.44163-.479-.53999 0,0zm-10.4914,4.10755c.0648.60871-.9595-.47388 0,0zm.8471-.17353c-.3103.43756-.6241-.52987 0,0zm-2.1348.86841c2.6172-.89548-.6691.62553 0,0zm15.4937-4.95672c-1.2146.79872-1.2049-.24921 0,0zm-13.3423,5.10485c-.2901.41827-.829-.45824 0,0zm3.35.43885c-.1505.44145-.4791-.54038 0,0zm1.1185.1723c.1484,1.54515-2.1706-.12739 0,0zm15.3996-4.76526c-.2938,1.2336-1.4497-.58459 0,0zm-12.9874,4.93134c-.3526.55305-.3636-.22985 0,0zm3.0042.36505c.8809,1.5541-3.4685.84827 0,0zm10.6103-2.31708c.1076.5151-1.1629-.5923 0,0zm-8.7481,3.15778c1.0694.25495-2.5084-.08442 0,0zm4.1201.06506c1.1164.40646-1.507-.03439 0,0zm1.0718-.15387c-.1508.44146-.4789-.54028 0,0zm6.9625-1.73511c.016.4633-.7374-.54117 0,0zm-4.9426,2.17731c.2051.41446-1.4911-.46257 0,0zm-.5942.34979c-.2918.56139-.7503-.62309 0,0zm-.2013.2771c-.3334.68808-1.1538-.53573 0,0zm7.7061-1.94018c1.7904.04462-2.9031.34059 0,0zm.3331,1.14727c-.324.57228-.5588-.48587 0,0zm.8966,1.37885c-.3394.80213-1.3529-.33521 0,0zm-34.9379-5.67493c.7094.306.1719-.4137 0,0zm32.8212,7.05011c.836,1.25732.4164-.73073 0,0zm7.8258.73889c.5658.20069 1.3119-.59954 0,0zm2.6947-.07312c1.6267.6759.7498-.74615 0,0zm1.2735.36066c1.4918.93702.3326-1.05803 0,0zm1.3105.29211c.7168.92061.6184-.68728 0,0zm1.5972.37183c.7109.49195.6686-.29764 0,0z" fill-opacity=".57736"/>
   <path d="m1267.3458,614.26782c1.5238-.02324 2.5768,1.54281.3026,1.1642-2.4771.71637-.1316.82926-.3065,1.02336-.8964.1863-2.2693.79006-.5279.60907-1.9243,1.34639 1.7114.48334 1.6818,1.0032 1.0226.97542 2.7332.35379 4.1243.76779 .1804,1.29302 3.154,1.16394 4.5086,1.7899 2.5081-.10741 4.7615.09009 6.6053,1.26486 1.1-.15862 1.3996-1.36694 1.516-.03984 1.4466-.83089 1.8881.55094.2375.31349 1.3443-.18407 1.8241.23685 1.831.34272 2.8418-.30041 5.8458,1.56848 8.4609,1.14343-1.4264-.07611-.6452-.29524-.1275-.37972-1.6145.03324-3.0141-.5251-.5839-.54377-1.6727.02939-.7127-.35053-1.2056-.3701-2.1495.03468-1.5695-.37225-1.215-.44681-2.1068-.15601-1.5024-.30738.1421-.44074-1.2036-.25622-4.3956-.40643-1.2452-.3475 1.3897-.13635-4.2695-.73284-1.139-.79463 2.2906.14408-1.7727-.87032-1.3749-.65511-1.8773.36081-2.6504-1.09931-.3373-.72814 1.1813-.23344-5.4619-.65659-1.5273-.69204 3.4642-.307-5.0614-.51788-1.2382-.72296 2.3653-.156-4.8203-.90797-.6507-.65546 3.469-.44438-6.2997-.91093-1.6431-.85634 1.0974-.13978-4.4358-.59527-1.4923-.82085-1.2979-.50533-5.0352.30413-2.0317-.66959-3.017-.07208-6.4559-.47929-9.1769.52667-.2585.22423-5.5716-2.02602-3.5871-.78509zm1.0495,1.35773c.5012.79513-1.938.01386 0,0zm-.5026,1.40466c-.7767.22941-.4698-.34021 0,0zm2.062-.17718c-.8414,1.11901-2.3179-.00198 0,0zm1.0256-.27954c-.19.37621-.548-.47736 0,0zm1.7531-.31403c-.2344.28435-.5993-.37128 0,0zm4.652-1.08844c-.1967.40435-.5014-.41047 0,0zm-8.3003,2.33038c-.1417.44218-.437-.23468 0,0zm8.7361-2.21289c-.1277.3004-.3054-.39966 0,0zm-7.5517,2.33448c.0109.42758-.6429-.37867 0,0zm.6009-.07819c-.2386.28952-.4075-.39997 0,0zm-1.5386.49774c1.875-.49211-.5008.40242 0,0zm11.0891-2.67377c-.8913.4953-.8273-.23448 0,0zm-9.5969,2.88593c-.2334.28395-.5949-.37041 0,0zm2.3116.47546c-.1277.30036-.3055-.39972 0,0zm.7703.17676c.0112,1.0896-1.5046-.20418 0,0zm11.0126-2.54498c-.2742.84532-.9789-.48133 0,0zm-9.3395,2.78277c-.2749.36804-.2421-.17862 0,0zm2.0746.40662c.5231,1.13146-2.4646.41228 0,0zm7.5327-1.07965c.0456.36566-.7766-.4735 0,0zm-6.2818,1.76013c.7346.23214-1.7498-.18619 0,0zm2.8702.25372c.7977.33322-1.055-.08797 0,0zm.7563-.05316c-.1279.30034-.3052-.39947 0,0zm4.9552-.85809c-.014.32428-.4846-.41507 0,0zm-3.5716,1.26874c.1181.30042-1.0138-.40021 0,0zm-.4343.21393c-.2324.37643-.4911-.47093 0,0zm-.1563.1831c-.2689.46244-.777-.43055 0,0zm5.4856-.96356c1.2306.1216-2.036.09057 0,0zm.1668.81702c-.255.38298-.3654-.36659 0,0zm.547,1.00708c-.2986.54684-.9596-.3 0,0zm-24.0457-5.72498c.774.20695.1562-.28138 0,0zm22.4911,6.57721c.5166.91653.3273-.48866 0,0zm5.4162.91101c.3817.16813.9525-.35099 0,0zm1.8837.08527c1.0998.55351.5619-.48211 0,0zm.8678.31598c.9909.72811.2876-.7214 0,0zm.8973.26995c.4523.67728.4661-.44869 0,0zm1.0929.34015c.4687.37987.482-.17457 0,0z" fill-opacity=".57736"/>
   <path transform="matrix(.49696 0 0 .62758 891.96 -149.09)" d="m821.12 853.39a427.28 35.916 0 1 1 -854.56 0 427.28 35.916 0 1 1 854.56 0z" fill="url(#g)"/>
   <path transform="matrix(.4768 0 0 .46824 970.06 17.553)" d="m821.12 853.39a427.28 35.916 0 1 1 -854.56 0 427.28 35.916 0 1 1 854.56 0z" fill="url(#g)"/>
   <path transform="matrix(.34139 0 0 .53906 1081.2 65.204)" d="m821.12 853.39a427.28 35.916 0 1 1 -854.56 0 427.28 35.916 0 1 1 854.56 0z" fill="url(#l)"/>
   <path d="m1245.0308,623.85626c1.5237-.02327 2.5769,1.54275.3027,1.1642-2.4771.71637-.132.82916-.3066,1.02334-.8964.18632-2.2693.79006-.5279.60908-1.9244,1.34631 1.7112.48338 1.6817,1.00318 1.0227.97549 2.7334.35374 4.1245.7678 .1803,1.29311 3.154,1.16391 4.5086,1.78994 2.5081-.10747 4.7613.09011 6.6052,1.26481 1.1001-.15873 1.3995-1.36685 1.5159-.03982 1.4467-.83084 1.8883.55084.2376.31349 1.3442-.184 1.8242.23681 1.8311.34274 2.8417-.30043 5.8458,1.56843 8.4608,1.14343-1.4265-.07609-.6453-.29532-.1273-.37973-1.6146.03321-3.0144-.52503-.5841-.54379-1.6728.02933-.7127-.35047-1.2055-.37011-2.1495.03465-1.5698-.37218-1.2152-.4468-2.1067-.15606-1.5021-.30731.1421-.44074-1.2037-.25624-4.3955-.40641-1.245-.34748 1.3897-.13637-4.2695-.73284-1.1391-.79464 2.2906.14406-1.7726-.87029-1.3749-.65512-1.8775.36078-2.6503-1.09932-.3372-.72813 1.1816-.23345-5.4622-.65661-1.5274-.69204 3.491-.30411-5.2678-.54115-1.1474-.72374 1.7639-.29057-4.8353-.8881-.7567-.65074 3.3491-.47274-6.2592-.90851-1.6279-.86028 1.0977-.13979-4.4357-.59523-1.4924-.82085-1.2981-.50537-5.0352.30412-2.0315-.66961-3.0171-.07206-6.4561-.47925-9.1771.52668-.2584.22445-5.5716-2.0263-3.587-.78507zm1.0495,1.35767c.5012.7953-1.9381.01383 0,0zm-.5025,1.40466c-.777.22932-.4696-.34006 0,0zm2.0618-.17712c-.8412,1.11896-2.3178-.00196 0,0zm1.0258-.27954c-.1902.37618-.5479-.47725 0,0zm1.7531-.31409c-.2339.28422-.5963-.37087 0,0zm4.6519-1.08838c-.1966.40431-.5016-.41042 0,0zm-8.3003,2.33032c-.1416.44229-.4371-.2346 0,0zm8.7361-2.21283c-.1276.30036-.3054-.39943 0,0zm-7.5517,2.33448c.0114.42758-.6433-.37886 0,0zm.6009-.07819c-.2383.28938-.4077-.39968 0,0zm-1.5386.49774c1.8752-.492-.5016.40224 0,0zm11.0892-2.67383c-.8918.4954-.8266-.23452 0,0zm-9.597,2.88593c-.2339.28459-.5979-.37116 0,0zm2.3116.47552c-.1279.30031-.3053-.39999 0,0zm.7703.17676c.0108,1.08972-1.5043-.20442 0,0zm11.0126-2.54498c-.2741.84525-.9789-.48124 0,0zm-9.3395,2.78277c-.2747.3682-.2424-.1788 0,0zm2.0746.40662c.5233,1.13145-2.4648.41222 0,0zm7.5327-1.07965c.0452.36574-.7764-.47369 0,0zm-6.2818,1.76013c.7354.2321-1.7499-.18607 0,0zm2.8701.25372c.7952.33356-1.0545-.08866 0,0zm.7563-.05316c-.1279.3003-.3052-.39969 0,0zm4.9552-.85809c-.0138.32424-.4848-.41513 0,0zm-3.5715,1.26874c.118.30043-1.0135-.40016 0,0zm-.4343.21393c-.2324.3764-.491-.471 0,0zm-.1561.1831c-.2692.46222-.7765-.43008 0,0zm5.4854-.96356c1.236.12181-2.0397.09036 0,0zm.1669.81702c-.2551.38286-.3654-.36639 0,0zm.5469,1.00708c-.2784.54202-.9308-.3021 0,0zm-24.0457-5.72498c.6694.21457.1696-.28388 0,0zm22.491,6.57715c.5164.91655.3277-.48852 0,0zm5.4162.91107c.3833.16788.9502-.35065 0,0zm1.8838.08527c1.1001.55343.5616-.48214 0,0zm.8678.31598c.9911.72801.2872-.72143 0,0zm.8973.26995c.4523.6771.4662-.44866 0,0zm1.0928.34015c.4692.37991.4817-.17477 0,0z" fill-opacity=".57736"/>
   <path d="m1213.5706,623.68573c2.1439.45534-.0367.78084-.4584,1.20157 1.4281.16929-1.5499.66486.1169.59374-.8586.80315 1.7678.56171 2.3149,1.02567 2.0402.30187 3.9946,1.58658 6.318,1.3184 1.6383.69986 2.8684.31985 4.0244.68613-1.4015.53253 2.069.29724 2.9308.77015 1.3179.4956 3.6101.58979 2.5474.17526-.952.04115-1.0163-.4807.0029-.34068-.9393-.18571-3.3259-.68287-1.4628-.80738-.8901-.16542-2.3539-.21677-.657-.26854-.9451-.22696-2.2041-.47588-.427-.51081-.772-.33564-3.7954-.61127-1.4737-.90307-1.2214-.21746-2.6664-.37197-.5489-.45422-.4366-.23966-3.1458-.27231-.9904-.44648-1.2782-.42789-2.1124-.32853-.2543-.47426-.3936-.37214-3.6545-.37996-1.4428-.48526-.3425-.12567-2.4223-.33536-1.0417-.48452-.5444-.25831-3.0126.10738-1.3042-.42984-2.2643-.38731-4.5941.29984-6.7556.12457-.2194-.02849-2.4465-.96569-1.4385-.29043zm.6735.87158c.1291.66156-1.0653-.20967 0,0zm-.3225.9018c-.4528.19604-.2834-.25234 0,0zm1.3236-.11377c-.6182.76669-1.2014-.1794 0,0zm.6587-.17951c-.1782.256-.2816-.36945 0,0zm1.1253-.2016c-.1921.20493-.3242-.29994 0,0zm2.9865-.69867c-.1564.28015-.2739-.31796 0,0zm-5.3284,1.49598c-.0772.30567-.2732-.18579 0,0zm5.6082-1.4206c-.1207.1951-.1504-.29337 0,0zm-4.848,1.49866c-.0629.29783-.3622-.32697 0,0zm.3858-.05011c-.1817.20226-.2086-.29864 0,0zm-.9878.31952c1.2992-.47509-.2063.30307 0,0zm7.1189-1.71655c-.5213.35118-.4952-.19578 0,0zm-6.1611,1.85272c-.1931.21057-.3594-.32005 0,0zm1.4842.30524c-.121.19496-.1501-.29352 0,0zm.4945.11346c-.0321.69576-.8631-.23407 0,0zm7.0698-1.63379c-.1858.52608-.5242-.3348 0,0zm-5.9958,1.78644c-.129.26206-.1779-.12606 0,0zm1.3319.26105c.1204.86417-1.3873-.01328 0,0zm4.8358-.69306c-.003.26123-.517-.41174 0,0zm-4.0327,1.12995c.3991.18823-1.2511-.20531 0,0zm1.8425.1629c.4799.23112-.7029-.08922 0,0zm.4855-.03418c-.121.19494-.1501-.29351 0,0zm3.1811-.55084c-.086.21267-.2525-.33518 0,0zm-2.2928.81445c-.0271.2249-.627-.37503 0,0zm-.2788.13739c-.1893.2583-.2541-.35631 0,0zm-.1003.11749c-.2138.3327-.4282-.36046 0,0zm3.5217-.61859c.6317.12891-1.4144-.00046 0,0zm.107.52454c-.1626.26929-.2121-.2693 0,0zm.3511.64654c-.2017.39609-.5379-.29396 0,0zm-15.4367-3.67535c.4503.21285.1508-.2145 0,0zm14.4386,4.22241c.2486.64791.2652-.32129 0,0zm3.4772.58484c.2322.15333.5715-.30258 0,0zm1.2092.05481c.6887.38869.354-.31595 0,0zm.557.20282c.5716.53883.2229-.49039 0,0zm.5762.17328c.2279.48145.3222-.31547 0,0zm.7016.21838c.2589.27357.2999-.14758 0,0z" fill-opacity=".57736"/>
   <path d="m910.55 494.15c-0.40829 2.2626 0.97027 7.8956-2.6667 4.0094-0.52361 0.00365 4.4501 8.5478 1.0514 5.443-0.41289-2.7257-1.8615-2.6212-3.0622-1.8432-4.0994-1.5914 1.0097 3.7402-0.6558 4.3878 3.2007-0.00366 2.1243 2.2564-0.32921 1.0984 3.931 5.3486-5.0536 0.80058-5.1215 2.18 3.7983 1.6143-2.5297 1.2211 0.79088 2.8493 5.3218 1.8615-3.5654 2.233 0.4488 3.6072 1.9004 0.64533 5.9575-0.88608 4.6099 1.3981 2.5336-0.23209 2.4238 1.7382 4.8428 0.16145 1.2421 5.5331-10.886-1.741-8.7811 1.6653-2.5247 0.09748-6.3585-3.7975-8.1996-0.70745-5.4719 0.41101 1.317 2.2152 2.7367 1.9247-4.491 3.6122 5.8496-1.3846 1.2641 1.5996 0.78928 3.7294 8.3929-2.7228 3.4877 1.6391 1.9497 2.3192 9.0963-2.7932 9.4965-1.6081-2.5653 3.8774-7.4545 3.9327-11.12 2.843 2.4333 2.5754-4.2221-0.78811-6.0022 1.1915-2.4569 0.05584 0.34518 1.9975 0.10496 2.3834 2.7738 0.77195 7.2764 3.6161 1.5578 2.7208-2.4786-0.02928 1.3446 4.4602-2.7113 1.8502-2.0467-1.1361-0.94494 1.9735-3.7785 0.59692-2.5746 0.63082 4.0789 3.4552 5.6016 3.8541 2.9455-0.06496 5.9644 4.9829 7.4777 3.6325-3.802 3.1989-8.8696 0.25952-13.089 2.0005-1.7574 1.3454 4.4376 4.0709 4.9664 4.323 6.1326 2.704-7.6-0.21016-6.706 2.2654 3.772 2.2451 7.1409 5.1128 11.087 1.928 1.328 0.96647-2.3536 0.66333-0.79725 3.019-3.9033 1.7737-11.292 2.0463-13.504 4.1331 3.2074 3.1096 6.7793 3.4582 10.812 4.0785 2.107-0.7712 1.2766-1.3806 3.108-0.91092 1.5119 0.83041 2.6861-2.1624 4.3927-0.13974-1.8207 1.9454-11.497 1.6409-5.3393 3.9629-5.0934 1.4191-10.612 0.31406-15.781 1.437-3.0215 1.3657 3.5378 1.062-0.11505 2.7675-1.588 1.9456 5.9711-0.09876 4.9228 2.1166 2.4748-0.42325 3.6582 0.60294 5.6138 0.10384-0.14446 2.668 2.838-0.89968 3.3012 1.4954 2.5358-0.37521 6.3292 1.1663 1.9924 2.1068-4.6254 1.1774-9.1311 0.70226-13.337 0.82716-2.7251-0.91748-6.4611-0.21944-1.5867 1.0031 3.9325 0.46116-3.7429 0.77145 1.0579 1.7541 0.75175 2.2968 4.8405 0.4848 6.4445 2.4106 3.6137-1.7676-1.1893 1.773 2.4461 0.92995 3.8772 0.72577-6.3624 3.8035-8.6024 2.2296-2.2784 0.15482-5.1683 0.09461-6.6799 0.90048 4.0612 1.8482-7.0047-0.63283-2.494 1.6135 2.7456-1.4e-4 3.2561 0.36204 1.6005 2.568 1.2811 2.2947 9.68 1.3886 4.8736 3.748-2.3102-0.15903-5.634 1.2065-1.2429 1.418 3.4521-0.951-3.0148 2.7675 1.1815 1.6867 1.2367 1.9074 3.3737 0.33339 4.0839 1.5824 2.8969 1.3884-7.9084 0.56371-9.1522 1.2393 4.2043 1.59-5.7985 1.75-0.74825 2.8741 1.6979-0.42681 5.0712-0.99171 2.1404 1.3684 2.3082-0.76887 3.4861 0.73148 4.2259 1.4111 1.3317-1.1277 3.3928-1.0714 1.9319 1.1803 2.3118-0.93291 5.0796-4.2685 3.9076-0.93092 4.5797-1.5619-2.4218 2.8732-4.2434 1.0387-3.6744-0.51041-6.5726 0.5884-8.5432 1.9569 4.7552-0.2456-5.2488 3.1272 0.02369 2.4126 3.0146-1.3336 1.6946-0.13195 1.7673 1.2238 1.781-0.82815 0.20513 1.9565 2.7202 0.31788 2.233 0.87487 5.0921 0.07084 7.6384 0.48307-2.8027-0.15524-7.165 2.7027-1.6909 1.705-3.7287 2.1117 0.54805 2.3165 2.4292 1.0081-2.403 4.2875 5.8817 1.5037 6.1554 1.9626-0.43325 3.0699 4.1002-3.1218 3.7318 1.1535 3.6547-1.1949 6.5677-1.8994 9.0662-4.2348 1.7489 1.9472 3.9758-5.7906 5.384-1.0936-0.27722 3.1814-4.05 8.8405 2.3032 7.147 3.045 0.2096 6.2456 0.59476 4.3095-3.3356-0.98199-4.0887 1.8642-1.0527 2.947-0.97005 2.7184 2.8637 8.2176 1.7945 11.281 1.2053-0.42919-2.6452 2.4685-0.66686 3.7938-0.9908 1.3223 1.4614 3.9293 1.5928 4.8348 1.1126 2.301 1.6128 0.44662-5.0635 2.7844-1.4025 1.6988 0.95443 5.0166-0.09491 5.9361 0.54018-0.18358-2.0395 2.0823-1.0237-0.21813-2.6396 0.69664-0.08314 5.8754 2.257 3.1119 0.11345 4.6932 0.10481 2.9506-1.925-0.66312-1.3975-2.6525-0.22981-7.3841-1.6284-4.2838-2.439 0.67627-0.66721 4.4095-1.7e-4 1.6252-1.3894 1.8833 0.84155 4.5559-1.1678 1.0448-1.1822 2.1598-0.23887 2.0937-2.2636 5.0203-1.3251-3.4823-1.4541-1.1956-1.4104 0.17976-1.8923-2.6348-0.17485-6.2332-1.5176-1.159-1.6621 5.0353-2.0047-1.0435-1.0572-2.6234-1.0203 2.6897-3.3058-4.0498 1.4434-6.132 0.2276-3.6422 0.29002-11.895-3.312-12.035-4.5881 1.2453-0.22715 5.0196 2.8556 3.8658-0.16133 3.7103 3.2346 5.8293-2.5489 9.4649 1.2906-4.9399-5.6705 12.665-1.6618 4.6759-4.7783-0.95071-0.51086 9.253 0.00749 2.5367-1.3169-2.2569 0.25306 3.1592-1.7155-0.31894-1.2185-6.2007-0.58772-11.735-0.18967-18.094-2.4103-3.9931-0.80118-3.594-2.9203 0.22539-1.8649 4.8628 1.1593 6.4095 0.31126 10.964 0.33176 1.0134-3.1939 11.42-1.2548 6.9947-5.3918 2.3385-1.2937 5.1896-1.9602 0.76033-1.3894-4.2534-0.10986-9.3055-0.59801-12.834-2.5533 0.9101-2.0483 7.125 1.4015 4.4223-1.4127 1.5312 0.22922 4.369-0.46255 1.1571-1.0972 2.7924-0.22695 7.4193-4.8026 1.5991-2.6986-2.9526-1.7415-11.054 1.1183-11.214-2.6675 4.2858 0.81418 8.9454 0.13235 9.0781-5.3475-2.9556 0.38315-7.5562 3.1129-9.4597-0.35677 1.277 0.87179 4.0012 0.21586 1.9413-1.4862 2.2425 0.48552 3.4385-3.6663 0.34812-1.6841-2.2999 0.44452-10.493 0.59452-8.5806-1.5955 2.128 0.74637 7.1098-0.24992 3.3308-2.3096 2.6448 0.91479 8.1413-2.0708 7.2711-3.9533-1.9288-2.1692-4.3772-0.56905-6.4546-0.97502 2.6157-1.712-0.02423-0.62811-0.76455-1.9393-2.0042 3.7432-11.539 0.16524-9.7076-1.1411 4.4005-0.01356 7.5982-0.11803 11.64-1.3291-1.1341-2.9556 7.2818-4.1774 1.0357-4.8545-1.3768-2.8493-7.6733 2.2611-6.2382-2.3587-3.7712 3.0058-11.889-0.45301-12.78-2.2902 3.5937 1.1133 4.4544-0.09911 7.4632 0.58578-0.37098-1.2593 2.699 2.3124 3.9351-0.57819 3.0065-0.10986 0.72653-4.4886 4.1579-2.2325 0.86293-1.9121 5.6828-2.874 0.96496-2.9275-1.3567-1.3258-4.2576 1.5925-4.5141-1.2434-3.2159 2.9737-8.8976 2.1308-10.864-1.4449 1.8336-0.16491 6.1319 2.6043 6.1105-0.78645 1.7771 1.7995 5.6264 1.2358 1.9324-0.65324 2.4611 1.7874 5.6271 0.10699 5.2528-1.4636 5.9209-0.71643-2.9833-2.794-4.7693-1.3427-2.1888-4.6805-8.3431 2.0568-9.4714-1.7508-1.1748-0.60384-7.1291-3.204-4.5386-4.0724 0.39708 1.7666 2.9359 3.9637 2.8153 0.74827 1.4948 4.2762 4.0316-1.4078 6.3861 2.1688 1.0767-2.3275 4.8249 0.8448 5.8962-2.4554-2.1884-1.7628-8.2569-3.6196-8.74-3.1337 2.2727-1.8898 4.0571-2.5962 0.21923-3.1144-0.46009-1.4086 7.1754-2.1138 1.9276-3.9982 3.8559-1.4028-1.2739-2.7383 0.95988-4.7857-4.1761 0.15031-6.175 2.8996-8.8153 6.2314-3.0789 0.56979-2.6275-8.5289 0.94604-5.2458 3.8345 0.21327 2.7513-2.7766-0.24696-2.8928 1.5484-0.18516 6.877-0.37999 2.444-1.6272 3.195-3.111 0.03831-1.5156-1.9972-1.0772-1.3846-1.987-3.8984 5.5988-2.9665 0.26138 0.68335-2.2315 5.0914-6.4505 0.21286-3.2609-2.092 0.15692 0.78024-3.6774-2.0199-4.3722zm-2.5686 11.431c2.6445 0.26662 2.052 5.8106 0.90881 1.6176-0.1469-0.55558-1.1563-0.90406-0.90881-1.6176zm-0.92328 4.7843c2.7966 0.05855 3.4112 4.0921 0.54798 1.2965 0.02316-0.00556-1.4192-1.2306-0.54798-1.2965zm10.346 2.6569c1.0466 2.832-8.1403 2.9629-2.0486 1.6842 0.85072-0.36433 1.2292-1.2768 2.0486-1.6842zm-4.3915 4.6621c2.4187 0.26937 4.871 1.6416 0.81911 0.61445l-0.81911-0.61445zm4.1548 0.8042c2.7803-0.66776-0.42247 2.4037 0 0zm5.7054 1.191c1.2313 0.81725-1.7177 0.40028 0 0zm-8.9132 5.2119c1.4875 2.193-0.92871 4.6964-0.2012 0.81342l0.2012-0.81342zm-2.8882 4.3466c1.1307 0.72639-1.7173 0.57837 0 0zm3.0539 0.6922c0.6538 1.6959-0.58888 0.95513 0 0zm-4.7111 0.17297c1.2889 0.52505-1.3877 0.64735 0 0zm-1.8939 0.65155c1.2889 0.52501-1.3876 0.64724 0 0zm-7.8835 0.01013c1.5232 1.7843 9.7575-0.31658 3.9406 1.7028-1.3475 0.2751-5.0488 0.80976-3.9406-1.7028zm34.753 17.254c1.3975 0.60893-0.8689 0.87668 0 0zm-31.664 3.9089c-2.9537 2.2295-4.3888 0.75542 0 0zm32.705 13.915c3.9082 0.42907-4.0156 0.40015 0 0zm8.4752 1.761c2.1372-0.03981-1.2209 0.47809 0 0zm0.09466 8.1129c2.6238-0.16613 0.65837 1.3013 0 0zm-65.979 13.162c0.81553 0.91672-2.4294 0.2603 0 0zm6.1197 2.7993c1.7239 1.9584 4.468 0.2691 6.8214 1.1502 1.1275 0.44126-10.886 2.3853-6.8214-1.1502zm8.8066 0.35626c1.2632 0.58845-2.5346 0.34923 0 0zm-3.847 13.427c1.1306 0.72647-1.7173 0.57831 0 0z"/>
   <path transform="matrix(.68632 0 0 .68632 853.28 333.6)" d="m476.74 140a7.5374 7.5374 0 1 1 -15.075 0 7.5374 7.5374 0 1 1 15.075 0z" fill="url(#e)" fill-rule="evenodd"/>
   <path transform="matrix(.68632 0 0 .68632 865.21 319.43)" d="m476.74 140a7.5374 7.5374 0 1 1 -15.075 0 7.5374 7.5374 0 1 1 15.075 0z" fill="url(#e)" fill-rule="evenodd"/>
   <path transform="matrix(.68632 0 0 .68632 891.3 326.92)" d="m476.74 140a7.5374 7.5374 0 1 1 -15.075 0 7.5374 7.5374 0 1 1 15.075 0z" fill="url(#e)" fill-rule="evenodd"/>
   <path transform="matrix(.51818 0 0 .68632 961.92 335.54)" d="m476.74 140a7.5374 7.5374 0 1 1 -15.075 0 7.5374 7.5374 0 1 1 15.075 0z" fill="url(#e)" fill-rule="evenodd"/>
   <path transform="matrix(.54785 0 0 .48851 900.66 382.61)" d="m476.74 140a7.5374 7.5374 0 1 1 -15.075 0 7.5374 7.5374 0 1 1 15.075 0z" fill="url(#e)" fill-rule="evenodd"/>
   <path transform="matrix(1.078 0 0 1.078 659.02 287.86)" d="m476.74 140a7.5374 7.5374 0 1 1 -15.075 0 7.5374 7.5374 0 1 1 15.075 0z" fill="url(#e)" fill-rule="evenodd"/>
   <path transform="matrix(1.078 0 0 1.078 690.23 271.41)" d="m476.74 140a7.5374 7.5374 0 1 1 -15.075 0 7.5374 7.5374 0 1 1 15.075 0z" fill="url(#e)" fill-rule="evenodd"/>
   <path transform="matrix(.77024 0 0 .77024 862.65 328.2)" d="m476.74 140a7.5374 7.5374 0 1 1 -15.075 0 7.5374 7.5374 0 1 1 15.075 0z" fill="url(#e)" fill-rule="evenodd"/>
   <path transform="matrix(.68632 0 0 .68632 877.87 384.91)" d="m476.74 140a7.5374 7.5374 0 1 1 -15.075 0 7.5374 7.5374 0 1 1 15.075 0z" fill="url(#e)" fill-rule="evenodd"/>
   <g transform="matrix(.49696 0 0 .46824 466.2 -2.8906)">
   </g>
   <path transform="matrix(.00614 .00354 -.00392 .00553 944.75 439.46)" d="m23.888 766.01-141.21-207.2-139.78 208.17 108.83-225.9-250.17-16.966 250.05-18.695-110.39-225.14 141.21 207.2 139.78-208.17-108.83 225.9 250.17 16.966-250.05 18.695 110.39 225.14z" fill="url(#d)" fill-rule="evenodd"/>
   <path transform="matrix(.0039 .00624 -.00692 .00352 948.26 443.95)" d="m-555.4 541.06a78.632 352.35 0 1 1 -157.26 0 78.632 352.35 0 1 1 157.26 0z" fill="url(#c)" fill-rule="evenodd" opacity=".72692"/>
   <path transform="matrix(.00793 .00043 -.00048 .00715 947.32 438.3)" d="m-555.4 541.06a78.632 352.35 0 1 1 -157.26 0 78.632 352.35 0 1 1 157.26 0z" fill="url(#b)" fill-rule="evenodd" opacity=".72692"/>
   <path transform="matrix(.00422 -.00607 .00674 .0038 941.03 436.06)" d="m-555.4 541.06a78.632 352.35 0 1 1 -157.26 0 78.632 352.35 0 1 1 157.26 0z" fill="url(#a)" fill-rule="evenodd" opacity=".72692"/>
   <path transform="matrix(.00614 .00354 -.00392 .00553 1038.2 439.46)" d="m23.888 766.01-141.21-207.2-139.78 208.17 108.83-225.9-250.17-16.966 250.05-18.695-110.39-225.14 141.21 207.2 139.78-208.17-108.83 225.9 250.17 16.966-250.05 18.695 110.39 225.14z" fill="url(#d)" fill-rule="evenodd"/>
   <path transform="matrix(.0039 .00624 -.00692 .00352 1041.7 443.95)" d="m-555.4 541.06a78.632 352.35 0 1 1 -157.26 0 78.632 352.35 0 1 1 157.26 0z" fill="url(#c)" fill-rule="evenodd" opacity=".72692"/>
   <path transform="matrix(.00793 .00043 -.00048 .00715 1040.7 438.3)" d="m-555.4 541.06a78.632 352.35 0 1 1 -157.26 0 78.632 352.35 0 1 1 157.26 0z" fill="url(#b)" fill-rule="evenodd" opacity=".72692"/>
   <path transform="matrix(.00422 -.00607 .00674 .0038 1034.4 436.06)" d="m-555.4 541.06a78.632 352.35 0 1 1 -157.26 0 78.632 352.35 0 1 1 157.26 0z" fill="url(#a)" fill-rule="evenodd" opacity=".72692"/>
   <path transform="matrix(.00614 .00354 -.00392 .00553 1002.6 482.19)" d="m23.888 766.01-141.21-207.2-139.78 208.17 108.83-225.9-250.17-16.966 250.05-18.695-110.39-225.14 141.21 207.2 139.78-208.17-108.83 225.9 250.17 16.966-250.05 18.695 110.39 225.14z" fill="url(#d)" fill-rule="evenodd"/>
   <path transform="matrix(.0039 .00624 -.00692 .00352 1006.1 486.68)" d="m-555.4 541.06a78.632 352.35 0 1 1 -157.26 0 78.632 352.35 0 1 1 157.26 0z" fill="url(#c)" fill-rule="evenodd" opacity=".72692"/>
   <path transform="matrix(.00793 .00043 -.00048 .00715 1005.1 481.03)" d="m-555.4 541.06a78.632 352.35 0 1 1 -157.26 0 78.632 352.35 0 1 1 157.26 0z" fill="url(#b)" fill-rule="evenodd" opacity=".72692"/>
   <path transform="matrix(.00422 -.00607 .00674 .0038 998.83 478.79)" d="m-555.4 541.06a78.632 352.35 0 1 1 -157.26 0 78.632 352.35 0 1 1 157.26 0z" fill="url(#a)" fill-rule="evenodd" opacity=".72692"/>
   <path transform="matrix(.00614 .00354 -.00392 .00553 1280.3 371.1)" d="m23.888 766.01-141.21-207.2-139.78 208.17 108.83-225.9-250.17-16.966 250.05-18.695-110.39-225.14 141.21 207.2 139.78-208.17-108.83 225.9 250.17 16.966-250.05 18.695 110.39 225.14z" fill="url(#d)" fill-rule="evenodd"/>
   <path transform="matrix(.0039 .00624 -.00692 .00352 1283.8 375.59)" d="m-555.4 541.06a78.632 352.35 0 1 1 -157.26 0 78.632 352.35 0 1 1 157.26 0z" fill="url(#c)" fill-rule="evenodd" opacity=".72692"/>
   <path transform="matrix(.00793 .00043 -.00048 .00715 1282.9 369.94)" d="m-555.4 541.06a78.632 352.35 0 1 1 -157.26 0 78.632 352.35 0 1 1 157.26 0z" fill="url(#b)" fill-rule="evenodd" opacity=".72692"/>
   <path transform="matrix(.00422 -.00607 .00674 .0038 1276.6 367.69)" d="m-555.4 541.06a78.632 352.35 0 1 1 -157.26 0 78.632 352.35 0 1 1 157.26 0z" fill="url(#a)" fill-rule="evenodd" opacity=".72692"/>
   <path transform="matrix(.00614 .00354 -.00392 .00553 1323 489.31)" d="m23.888 766.01-141.21-207.2-139.78 208.17 108.83-225.9-250.17-16.966 250.05-18.695-110.39-225.14 141.21 207.2 139.78-208.17-108.83 225.9 250.17 16.966-250.05 18.695 110.39 225.14z" fill="url(#d)" fill-rule="evenodd"/>
   <path transform="matrix(.0039 .00624 -.00692 .00352 1326.5 493.8)" d="m-555.4 541.06a78.632 352.35 0 1 1 -157.26 0 78.632 352.35 0 1 1 157.26 0z" fill="url(#c)" fill-rule="evenodd" opacity=".72692"/>
   <path transform="matrix(.00793 .00043 -.00048 .00715 1325.6 488.15)" d="m-555.4 541.06a78.632 352.35 0 1 1 -157.26 0 78.632 352.35 0 1 1 157.26 0z" fill="url(#b)" fill-rule="evenodd" opacity=".72692"/>
   <path transform="matrix(.00422 -.00607 .00674 .0038 1319.3 485.91)" d="m-555.4 541.06a78.632 352.35 0 1 1 -157.26 0 78.632 352.35 0 1 1 157.26 0z" fill="url(#a)" fill-rule="evenodd" opacity=".72692"/>
  </g>
 </g>
</svg>
